<?xml version="1.0" encoding="iso-8859-1"?>
<!-- Generator: Adobe Illustrator 19.0.0, SVG Export Plug-In . SVG Version: 6.00 Build 0)  -->
<svg version="1.1" id="Capa_1" xmlns="http://www.w3.org/2000/svg" xmlns:xlink="http://www.w3.org/1999/xlink" x="0px" y="0px"
	 viewBox="0 0 512 512" style="enable-background:new 0 0 512 512;" xml:space="preserve">
<g>
	<g>
		<path d="M382.989,379.833l-56.047-20.241c-10.797-6.565-17.856-17.876-19.14-30.321c39.975-18.086,68.986-56.215,74.117-101.466
			c18.956-9.705,31.115-29.457,31.115-50.803V81.906C413.034,36.743,376.24,0,331.014,0H185.449
			c-45.227,0-82.021,36.743-82.021,81.906v100.672c0,18.389,9.679,35.146,25.434,44.386c4.907,46.024,34.513,84.783,75.29,102.778
			c-1.412,12.259-8.432,23.367-19.093,29.849l-56.047,20.241C82.948,396.468,52,440.507,52,489.418V502c0,5.523,4.478,10,10,10h388
			c5.522,0,10-4.477,10-10v-12.582C460,440.507,429.052,396.468,382.989,379.833z M148.137,213.412v-53.346
			c17.239-0.256,33.78-5.545,47.914-15.365c10.067-6.995,18.433-15.92,24.674-26.245c14.736,13.1,32.239,22.666,51.312,27.958
			c5.319,1.475,10.832-1.64,12.31-6.962c1.477-5.322-1.641-10.833-6.962-12.31c-20.033-5.559-38.025-16.705-52.031-32.234
			c-2.321-2.574-5.815-3.759-9.22-3.14c-3.409,0.622-6.254,2.965-7.518,6.192c-10.021,25.593-34.272,42.13-61.786,42.13
			c-2.915,0-5.83-0.653-8.692-0.653c-5.522,0-10,4.477-10,10v49.708c-3.025-4.88-4.709-10.581-4.709-16.567V81.906
			C123.428,47.771,151.25,20,185.449,20h145.564c34.198,0,62.021,27.771,62.021,61.906v95.096c0,9.636-3.827,18.767-10.294,25.562
			V117.59c0-5.523-4.478-10-10-10c-4.903,0-8.975,3.532-9.828,8.189c-8.887,5.857-15.374,8.224-26.813,11.388
			c-5.322,1.472-8.444,6.981-6.972,12.304c1.225,4.431,5.248,7.337,9.632,7.337c0.883,0,1.779-0.118,2.672-0.364
			c8.227-2.275,14.769-4.414,21.309-7.568v74.537c0,59.064-48.136,107.116-107.302,107.116S148.137,272.476,148.137,213.412z
			 M440,492H72v-2.582c0-40.513,25.641-76.993,63.804-90.775l56.937-20.562c0.561-0.202,1.102-0.454,1.617-0.753
			c3.005-1.741,5.822-3.728,8.438-5.921l26.686,42.876c1.896,3.044,5.159,4.717,8.5,4.717c1.804,0,3.63-0.488,5.274-1.512
			c4.688-2.918,6.124-9.085,3.206-13.774l-30.136-48.421c3.36-5.817,5.749-12.192,7.026-18.859
			c10.254,2.668,21.007,4.093,32.086,4.093c11.466,0,22.58-1.531,33.156-4.382c1.258,6.744,3.651,13.194,7.038,19.076l-31.022,48.38
			c-2.981,4.649-1.629,10.835,3.021,13.816c1.671,1.072,3.54,1.583,5.388,1.583c3.294,0,6.519-1.625,8.428-4.603l27.634-43.096
			c2.652,2.234,5.51,4.258,8.563,6.027c0.516,0.299,1.057,0.551,1.617,0.753l56.937,20.562C414.359,412.426,440,448.905,440,489.418
			V492z"/>
	</g>
</g>
<g>
	<g>
		<path d="M261.397,428.547c-4.671-2.951-10.846-1.56-13.796,3.109l-0.054,0.085c-2.951,4.668-1.56,10.845,3.108,13.796
			c1.659,1.048,3.507,1.549,5.334,1.549c3.315,0,6.56-1.648,8.462-4.658l0.054-0.085
			C267.457,437.675,266.065,431.499,261.397,428.547z"/>
	</g>
</g>
<g>
	<g>
		<path d="M306.786,131.125l-0.417-0.001c-0.021,0-0.042,0-0.063,0c-5.494,0-9.965,4.437-9.999,9.938
			c-0.034,5.523,4.417,10.028,9.939,10.062l0.54,0.001c5.522,0,10-4.477,10-10S312.308,131.125,306.786,131.125z"/>
	</g>
</g>
<g>
</g>
<g>
</g>
<g>
</g>
<g>
</g>
<g>
</g>
<g>
</g>
<g>
</g>
<g>
</g>
<g>
</g>
<g>
</g>
<g>
</g>
<g>
</g>
<g>
</g>
<g>
</g>
<g>
</g>
</svg>
