<?xml version="1.0" encoding="iso-8859-1"?>
<!-- Generator: Adobe Illustrator 19.0.0, SVG Export Plug-In . SVG Version: 6.00 Build 0)  -->
<svg version="1.1" id="Capa_1" xmlns="http://www.w3.org/2000/svg" xmlns:xlink="http://www.w3.org/1999/xlink" x="0px" y="0px"
	 viewBox="0 0 512 512" style="enable-background:new 0 0 512 512;" xml:space="preserve">
<g>
	<g>
		<path d="M482,409c16.542,0,30-13.458,30-30V45c0-16.542-13.458-30-30-30H30C13.458,15,0,28.458,0,45v334c0,16.542,13.458,30,30,30
			h172v68H10c-5.522,0-10,4.477-10,10s4.478,10,10,10h492c5.522,0,10-4.477,10-10s-4.478-10-10-10H310v-68H482z M290,477h-68v-68h68
			V477z M30,389c-5.514,0-10-4.486-10-10v-40h30c5.522,0,10-4.477,10-10s-4.478-10-10-10H20V45c0-5.514,4.486-10,10-10h452
			c5.514,0,10,4.486,10,10v274H128c-5.522,0-10,4.477-10,10s4.478,10,10,10h364v40c0,5.514-4.486,10-10,10H30z"/>
	</g>
</g>
<g>
	<g>
		<path d="M98.74,321.93c-1.87-1.86-4.44-2.93-7.07-2.93s-5.21,1.07-7.08,2.93c-1.86,1.86-2.92,4.44-2.92,7.07s1.06,5.21,2.92,7.07
			c1.87,1.86,4.439,2.93,7.08,2.93c2.63,0,5.21-1.07,7.07-2.93c1.859-1.86,2.93-4.44,2.93-7.07S100.6,323.79,98.74,321.93z"/>
	</g>
</g>
<g>
	<g>
		<path d="M256.947,354c-5.523,0-10,4.477-10,10s4.478,10,10,10h0.096c5.522,0,9.952-4.477,9.952-10S262.47,354,256.947,354z"/>
	</g>
</g>
<g>
	<g>
		<path d="M427.667,133H116.491l12.092-15.492c0.07-0.089,0.139-0.18,0.205-0.271c5.945-7.422,9.212-16.718,9.212-26.25
			c0-23.159-18.841-42-42-42s-42,18.841-42,42c0,9.6,3.323,18.982,9.358,26.432L75.514,133H50c-5.522,0-10,4.477-10,10
			s4.478,10,10,10h377.667c5.522,0,10-4.477,10-10S433.189,133,427.667,133z M112.478,105.637l-16.476,21.107l-16.934-21.707
			c-0.044-0.056-0.088-0.112-0.133-0.167C75.706,100.91,74,96.109,74,90.987c0-12.131,9.869-22,22-22s22,9.869,22,22
			c0,5.177-1.738,10.018-5.027,13.999C112.798,105.197,112.633,105.415,112.478,105.637z"/>
	</g>
</g>
<g>
	<g>
		<path d="M469.469,135.93c-1.86-1.86-4.44-2.93-7.07-2.93s-5.21,1.07-7.069,2.93c-1.86,1.86-2.931,4.44-2.931,7.07
			s1.07,5.21,2.931,7.07c1.859,1.86,4.44,2.93,7.069,2.93c2.63,0,5.21-1.07,7.07-2.93c1.86-1.86,2.93-4.44,2.93-7.07
			S471.33,137.79,469.469,135.93z"/>
	</g>
</g>
<g>
	<g>
		<path d="M349.517,267.923l-21.994-68c-1.335-4.127-5.178-6.923-9.515-6.923c-4.337,0-8.18,2.796-9.515,6.923l-21.992,68
			c-1.699,5.255,1.183,10.893,6.438,12.592c5.255,1.701,10.894-1.183,12.592-6.438l12.478-38.58l12.478,38.58
			c1.369,4.232,5.292,6.926,9.513,6.926c1.02,0,2.057-0.158,3.079-0.488C348.334,278.816,351.216,273.178,349.517,267.923z"/>
	</g>
</g>
<g>
	<g>
		<path d="M222.625,193c-5.522,0-10,4.477-10,10v34.536l-26.265-40.022c-2.426-3.696-6.988-5.361-11.224-4.095
			C170.901,194.684,168,198.58,168,203v68c0,5.523,4.478,10,10,10c5.522,0,10-4.477,10-10v-34.536l26.265,40.022
			c1.883,2.87,5.055,4.515,8.361,4.515c0.952,0,1.915-0.137,2.862-0.419c4.235-1.266,7.137-5.162,7.137-9.582v-68
			C232.625,197.477,228.147,193,222.625,193z"/>
	</g>
</g>
<g>
	<g>
		<path d="M134.679,193c-15.825,0-28.699,12.875-28.699,28.7v30.6c0,15.825,12.874,28.7,28.699,28.7s28.7-12.875,28.7-28.7v-30.6
			C163.379,205.875,150.504,193,134.679,193z M143.378,252.3c0,4.797-3.903,8.7-8.7,8.7s-8.699-3.903-8.699-8.7v-30.6
			c0-4.797,3.902-8.7,8.699-8.7s8.7,3.903,8.7,8.7V252.3z"/>
	</g>
</g>
<g>
	<g>
		<path d="M400.4,242.3c-5.522,0-10,4.477-10,10c0,4.797-3.903,8.7-8.7,8.7s-8.7-3.903-8.7-8.7v-30.6c0-4.797,3.903-8.7,8.7-8.7
			s8.7,3.903,8.7,8.7c0,5.523,4.478,10,10,10c5.522,0,10-4.477,10-10c0-15.825-12.875-28.7-28.7-28.7S353,205.875,353,221.7v30.6
			c0,15.825,12.875,28.7,28.7,28.7s28.7-12.875,28.7-28.7C410.4,246.777,405.922,242.3,400.4,242.3z"/>
	</g>
</g>
<g>
	<g>
		<path d="M92.4,242.3c-5.522,0-10,4.477-10,10c0,4.797-3.903,8.7-8.7,8.7s-8.7-3.903-8.7-8.7v-30.6c0-4.797,3.903-8.7,8.7-8.7
			s8.7,3.903,8.7,8.7c0,5.523,4.478,10,10,10c5.522,0,10-4.477,10-10c0-15.825-12.875-28.7-28.7-28.7S45,205.875,45,221.7v30.6
			c0,15.825,12.875,28.7,28.7,28.7s28.7-12.875,28.7-28.7C102.4,246.777,97.922,242.3,92.4,242.3z"/>
	</g>
</g>
<g>
	<g>
		<path d="M287.4,193h-40.8c-5.522,0-10,4.477-10,10s4.478,10,10,10H257v58c0,5.523,4.478,10,10,10c5.522,0,10-4.477,10-10v-58h10.4
			c5.522,0,10-4.477,10-10S292.922,193,287.4,193z"/>
	</g>
</g>
<g>
	<g>
		<path d="M462.4,193h-40.8c-5.523,0-10,4.477-10,10s4.478,10,10,10H432v58c0,5.523,4.478,10,10,10c5.522,0,10-4.477,10-10v-58h10.4
			c5.522,0,10-4.477,10-10S467.922,193,462.4,193z"/>
	</g>
</g>
<g>
	<g>
		<path d="M358.037,58.031H203.375c-5.522,0-10,4.477-10,10s4.478,10,10,10h154.662c5.522,0,10-4.477,10-10
			S363.559,58.031,358.037,58.031z"/>
	</g>
</g>
<g>
	<g>
		<path d="M280.706,98.031h-77.331c-5.522,0-10,4.477-10,10s4.478,10,10,10h77.331c5.522,0,10-4.477,10-10
			S286.228,98.031,280.706,98.031z"/>
	</g>
</g>
<g>
</g>
<g>
</g>
<g>
</g>
<g>
</g>
<g>
</g>
<g>
</g>
<g>
</g>
<g>
</g>
<g>
</g>
<g>
</g>
<g>
</g>
<g>
</g>
<g>
</g>
<g>
</g>
<g>
</g>
</svg>
