<svg width="60" height="60" viewBox="0 0 60 60" fill="none" xmlns="http://www.w3.org/2000/svg">
<path d="M58.8281 12.6572H51.859C51.2119 12.6572 50.6871 13.1819 50.6871 13.8291V16.1451H38.5309C37.8838 16.1451 37.359 16.6697 37.359 17.317C37.359 17.9642 37.8838 18.4888 38.5309 18.4888H50.6871V20.8048C50.6871 21.452 51.2119 21.9767 51.859 21.9767H54.1715V25.7822C54.1715 26.4295 54.6963 26.9541 55.3434 26.9541C55.9905 26.9541 56.5153 26.4295 56.5153 25.7822V21.9766H58.8281C59.4752 21.9766 60 21.4519 60 20.8047V13.8291C60 13.1819 59.4752 12.6572 58.8281 12.6572ZM57.6562 19.6328H53.0308V15.001H57.6562V19.6328Z" fill="url(#paint0_linear)"/>
<path d="M33.9492 16.4879C33.7313 16.2699 33.4289 16.1445 33.1207 16.1445C32.8114 16.1445 32.5102 16.2699 32.2922 16.4879C32.0731 16.7059 31.9489 17.0082 31.9489 17.3164C31.9489 17.6258 32.0731 17.927 32.2922 18.1449C32.5102 18.3641 32.8115 18.4883 33.1207 18.4883C33.4289 18.4883 33.7313 18.3641 33.9492 18.1449C34.1671 17.927 34.2926 17.6258 34.2926 17.3164C34.2926 17.0082 34.1672 16.7059 33.9492 16.4879Z" fill="url(#paint1_linear)"/>
<path d="M27.4248 16.1451H9.31289V13.8291C9.31289 13.1819 8.78813 12.6572 8.14102 12.6572H1.17188C0.524766 12.6572 0 13.1819 0 13.8291V20.8047C0 21.4519 0.524766 21.9766 1.17188 21.9766H3.48457V25.7822C3.48457 26.4295 4.00934 26.9541 4.65645 26.9541C5.30355 26.9541 5.82832 26.4295 5.82832 25.7822V21.9766H8.14102C8.78813 21.9766 9.31289 21.4519 9.31289 20.8047V18.4887H27.4248V18.4888C28.0719 18.4888 28.5967 17.9642 28.5967 17.317C28.5967 16.6697 28.0719 16.1451 27.4248 16.1451ZM6.96914 19.6328H2.34375V15.001H6.96914V19.6328Z" fill="url(#paint2_linear)"/>
<path d="M58.8281 50.6816H56.5154V46.1729C56.5154 45.5257 55.9907 45.001 55.3436 45.001C54.6964 45.001 54.1717 45.5257 54.1717 46.1729V50.6816H51.859C51.2119 50.6816 50.6871 51.2064 50.6871 51.8535V54.1695H18.1641C17.517 54.1695 16.9922 54.6943 16.9922 55.3414C16.9922 55.9885 17.517 56.5132 18.1641 56.5132H50.6871V58.8291C50.6871 59.4762 51.2119 60.001 51.859 60.001H58.8281C59.4752 60.001 60 59.4762 60 58.8291V51.8535C60 51.2063 59.4752 50.6816 58.8281 50.6816ZM57.6562 57.6572H53.0309V53.0254H57.6562V57.6572Z" fill="url(#paint3_linear)"/>
<path d="M8.14102 50.6816H5.82832V46.1729C5.82832 45.5257 5.30355 45.001 4.65645 45.001C4.00934 45.001 3.48457 45.5257 3.48457 46.1729V50.6816H1.17188C0.524766 50.6816 0 51.2064 0 51.8535V58.8291C0 59.4762 0.524766 60.001 1.17188 60.001H8.14102C8.78813 60.001 9.31289 59.4762 9.31289 58.8291V51.8535C9.31289 51.2063 8.78813 50.6816 8.14102 50.6816ZM6.96914 57.6572H2.34375V53.0254H6.96914V57.6572Z" fill="url(#paint4_linear)"/>
<path d="M14.5979 54.5133C14.3801 54.2941 14.0777 54.1699 13.7695 54.1699C13.4613 54.1699 13.159 54.2941 12.941 54.5133C12.723 54.7313 12.5977 55.0324 12.5977 55.3418C12.5977 55.65 12.7229 55.9523 12.941 56.1702C13.159 56.3882 13.4613 56.5137 13.7695 56.5137C14.0777 56.5137 14.3801 56.3883 14.5979 56.1702C14.8159 55.9511 14.9414 55.65 14.9414 55.3418C14.9414 55.0335 14.816 54.7313 14.5979 54.5133Z" fill="url(#paint5_linear)"/>
<path d="M8.06917 39.1496H6.7596C6.24609 39.1496 5.82843 38.7319 5.82843 38.2184V34.228C5.82831 33.7145 6.24609 33.2969 6.7596 33.2969H8.06917C8.71628 33.2969 9.24105 32.7721 9.24105 32.125C9.24105 31.4779 8.71628 30.9531 8.06917 30.9531H6.7596C4.95386 30.9531 3.48468 32.4223 3.48468 34.228V38.2184C3.48468 40.0241 4.95386 41.4933 6.7596 41.4933H8.06917C8.71628 41.4933 9.24105 40.9686 9.24105 40.3214C9.24105 39.6743 8.71628 39.1496 8.06917 39.1496Z" fill="url(#paint6_linear)"/>
<path d="M13.7695 30.9531C11.831 30.9531 10.2539 32.5302 10.2539 34.4688V38.2188C10.2539 40.1573 11.831 41.7344 13.7695 41.7344C15.708 41.7344 17.2852 40.1573 17.2852 38.2188V34.4688C17.2852 32.5302 15.708 30.9531 13.7695 30.9531ZM14.9414 38.2188C14.9414 38.8649 14.4157 39.3906 13.7695 39.3906C13.1234 39.3906 12.5977 38.8649 12.5977 38.2188V34.4688C12.5977 33.8226 13.1234 33.2969 13.7695 33.2969C14.4157 33.2969 14.9414 33.8226 14.9414 34.4688V38.2188Z" fill="url(#paint7_linear)"/>
<path d="M24.6877 30.9533C24.0406 30.9533 23.5159 31.4779 23.5159 32.1251V36.0402L21.0246 31.5559C20.7652 31.0892 20.2234 30.8569 19.7062 30.9906C19.1893 31.1247 18.8284 31.5911 18.8284 32.1251V40.5626C18.8284 41.2097 19.3531 41.7345 20.0002 41.7345C20.6474 41.7345 21.1721 41.2097 21.1721 40.5626V36.6475L23.6634 41.1318C23.8736 41.5102 24.2697 41.7347 24.6876 41.7347C24.7851 41.7347 24.8839 41.7225 24.9818 41.6972C25.4987 41.5631 25.8596 41.0967 25.8596 40.5627V32.1252C25.8596 31.4781 25.3349 30.9533 24.6877 30.9533Z" fill="url(#paint8_linear)"/>
<path d="M49.6875 30.9532C49.0404 30.9532 48.5156 31.478 48.5156 32.1251V36.0402L46.0243 31.5559C45.7651 31.0892 45.2232 30.8569 44.706 30.9906C44.1891 31.1247 43.8281 31.5911 43.8281 32.1251V40.5626C43.8281 41.2097 44.3529 41.7345 45 41.7345C45.6471 41.7345 46.1719 41.2096 46.1719 40.5625V36.6474L48.6632 41.1317C48.8734 41.5101 49.2695 41.7346 49.6874 41.7346C49.7849 41.7346 49.8837 41.7224 49.9815 41.6971C50.4984 41.563 50.8594 41.0966 50.8594 40.5626V32.1251C50.8594 31.478 50.3346 30.9532 49.6875 30.9532Z" fill="url(#paint9_linear)"/>
<path d="M33.1204 30.9531H29.0188C28.3717 30.9531 27.8469 31.4779 27.8469 32.125C27.8469 32.7721 28.3717 33.2969 29.0188 33.2969H29.8977V40.5625C29.8977 41.2096 30.4224 41.7344 31.0696 41.7344C31.7167 41.7344 32.2415 41.2096 32.2415 40.5625V33.2969H33.1204C33.7675 33.2969 34.2922 32.7721 34.2922 32.125C34.2922 31.4779 33.7675 30.9531 33.1204 30.9531Z" fill="url(#paint10_linear)"/>
<path d="M57.3943 30.9531H53.2928C52.6457 30.9531 52.1209 31.4779 52.1209 32.125C52.1209 32.7721 52.6457 33.2969 53.2928 33.2969H54.1717V40.5625C54.1717 41.2096 54.6963 41.7344 55.3436 41.7344C55.9907 41.7344 56.5154 41.2096 56.5154 40.5625V33.2969H57.3943C58.0415 33.2969 58.5662 32.7721 58.5662 32.125C58.5662 31.4779 58.0415 30.9531 57.3943 30.9531Z" fill="url(#paint11_linear)"/>
<path d="M40.5704 39.3906H38.0747V37.5156H39.4541C40.1012 37.5156 40.626 36.9909 40.626 36.3438C40.626 35.6966 40.1012 35.1719 39.4541 35.1719H38.0747V33.2969H40.5704C41.2176 33.2969 41.7423 32.7721 41.7423 32.125C41.7423 31.4779 41.2176 30.9531 40.5704 30.9531H36.9028C36.2557 30.9531 35.731 31.4779 35.731 32.125V40.5625C35.731 41.2096 36.2557 41.7344 36.9028 41.7344H40.5704C41.2176 41.7344 41.7423 41.2096 41.7423 40.5625C41.7423 39.9154 41.2176 39.3906 40.5704 39.3906Z" fill="url(#paint12_linear)"/>
<path d="M50.8739 0.000976562H15.8795C15.7145 0.000976562 15.5514 0.0357813 15.4008 0.103281L7.02129 3.85328C6.59953 4.04195 6.32812 4.4609 6.32812 4.92285C6.32812 5.3848 6.59953 5.80375 7.02129 5.99242L15.4008 9.74242C15.5514 9.8098 15.7145 9.84473 15.8795 9.84473H50.8739C52.4167 9.84473 53.6719 8.58953 53.6719 7.04676V2.79895C53.6719 1.25617 52.4167 0.000976562 50.8739 0.000976562ZM14.7076 6.86453L10.3688 4.92285L14.7076 2.98117V6.86453ZM45.889 7.50098H17.0514V2.34473H45.889V7.50098ZM51.3281 7.04676C51.3281 7.29719 51.1243 7.50098 50.8739 7.50098H48.2327V2.34473H50.8739C51.1243 2.34473 51.3281 2.54852 51.3281 2.79895V7.04676Z" fill="url(#paint13_linear)"/>
<defs>
<linearGradient id="paint0_linear" x1="48.6795" y1="12.6572" x2="48.6795" y2="26.9541" gradientUnits="userSpaceOnUse">
<stop stop-color="#3831FB"/>
<stop offset="1" stop-color="#C546FB"/>
</linearGradient>
<linearGradient id="paint1_linear" x1="33.1207" y1="16.1445" x2="33.1207" y2="18.4883" gradientUnits="userSpaceOnUse">
<stop stop-color="#3831FB"/>
<stop offset="1" stop-color="#C546FB"/>
</linearGradient>
<linearGradient id="paint2_linear" x1="14.2983" y1="12.6572" x2="14.2983" y2="26.9541" gradientUnits="userSpaceOnUse">
<stop stop-color="#3831FB"/>
<stop offset="1" stop-color="#C546FB"/>
</linearGradient>
<linearGradient id="paint3_linear" x1="38.4961" y1="45.001" x2="38.4961" y2="60.001" gradientUnits="userSpaceOnUse">
<stop stop-color="#3831FB"/>
<stop offset="1" stop-color="#C546FB"/>
</linearGradient>
<linearGradient id="paint4_linear" x1="4.65645" y1="45.001" x2="4.65645" y2="60.001" gradientUnits="userSpaceOnUse">
<stop stop-color="#3831FB"/>
<stop offset="1" stop-color="#C546FB"/>
</linearGradient>
<linearGradient id="paint5_linear" x1="13.7695" y1="54.1699" x2="13.7695" y2="56.5137" gradientUnits="userSpaceOnUse">
<stop stop-color="#3831FB"/>
<stop offset="1" stop-color="#C546FB"/>
</linearGradient>
<linearGradient id="paint6_linear" x1="6.36286" y1="30.9531" x2="6.36286" y2="41.4933" gradientUnits="userSpaceOnUse">
<stop stop-color="#3831FB"/>
<stop offset="1" stop-color="#C546FB"/>
</linearGradient>
<linearGradient id="paint7_linear" x1="13.7695" y1="30.9531" x2="13.7695" y2="41.7344" gradientUnits="userSpaceOnUse">
<stop stop-color="#3831FB"/>
<stop offset="1" stop-color="#C546FB"/>
</linearGradient>
<linearGradient id="paint8_linear" x1="22.344" y1="30.9531" x2="22.344" y2="41.7347" gradientUnits="userSpaceOnUse">
<stop stop-color="#3831FB"/>
<stop offset="1" stop-color="#C546FB"/>
</linearGradient>
<linearGradient id="paint9_linear" x1="47.3438" y1="30.9531" x2="47.3438" y2="41.7346" gradientUnits="userSpaceOnUse">
<stop stop-color="#3831FB"/>
<stop offset="1" stop-color="#C546FB"/>
</linearGradient>
<linearGradient id="paint10_linear" x1="31.0696" y1="30.9531" x2="31.0696" y2="41.7344" gradientUnits="userSpaceOnUse">
<stop stop-color="#3831FB"/>
<stop offset="1" stop-color="#C546FB"/>
</linearGradient>
<linearGradient id="paint11_linear" x1="55.3436" y1="30.9531" x2="55.3436" y2="41.7344" gradientUnits="userSpaceOnUse">
<stop stop-color="#3831FB"/>
<stop offset="1" stop-color="#C546FB"/>
</linearGradient>
<linearGradient id="paint12_linear" x1="38.7366" y1="30.9531" x2="38.7366" y2="41.7344" gradientUnits="userSpaceOnUse">
<stop stop-color="#3831FB"/>
<stop offset="1" stop-color="#C546FB"/>
</linearGradient>
<linearGradient id="paint13_linear" x1="30" y1="0.000976562" x2="30" y2="9.84473" gradientUnits="userSpaceOnUse">
<stop stop-color="#3831FB"/>
<stop offset="1" stop-color="#C546FB"/>
</linearGradient>
</defs>
</svg>
