<svg width="60" height="61" viewBox="0 0 60 61" fill="none" xmlns="http://www.w3.org/2000/svg">
<path d="M16.4516 30.0009C16.4516 30.5354 16.0183 30.9687 15.4839 30.9687C14.9494 30.9687 14.5161 30.5354 14.5161 30.0009C14.5161 29.4665 14.9494 29.0332 15.4839 29.0332C16.0183 29.0332 16.4516 29.4665 16.4516 30.0009Z" fill="url(#paint0_linear)"/>
<path d="M26.129 30.0009C26.129 30.5354 25.6957 30.9687 25.1613 30.9687C24.6269 30.9687 24.1935 30.5354 24.1935 30.0009C24.1935 29.4665 24.6269 29.0332 25.1613 29.0332C25.6957 29.0332 26.129 29.4665 26.129 30.0009Z" fill="url(#paint1_linear)"/>
<path d="M20.3226 38.7109C19.2551 38.7109 18.3871 37.8428 18.3871 36.7754H16.4516C16.4516 38.9103 18.1877 40.6464 20.3226 40.6464C22.4575 40.6464 24.1935 38.9103 24.1935 36.7754H22.2581C22.2581 37.8428 21.39 38.7109 20.3226 38.7109Z" fill="url(#paint2_linear)"/>
<path d="M40.6452 3.87207H42.5807V5.80755H40.6452V3.87207Z" fill="url(#paint3_linear)"/>
<path d="M44.5161 3.87207H56.129V5.80755H44.5161V3.87207Z" fill="url(#paint4_linear)"/>
<path d="M44.5161 7.74316H56.129V9.67865H44.5161V7.74316Z" fill="url(#paint5_linear)"/>
<path d="M40.6452 7.74316H42.5807V9.67865H40.6452V7.74316Z" fill="url(#paint6_linear)"/>
<path d="M40.6452 11.6143H42.5807V13.5497H40.6452V11.6143Z" fill="url(#paint7_linear)"/>
<path d="M44.5161 11.6143H56.129V13.5497H44.5161V11.6143Z" fill="url(#paint8_linear)"/>
<path d="M57.0968 17.4203C58.6972 17.4203 60 16.1176 60 14.5171V2.9042C60 1.30374 58.6972 0.000976562 57.0968 0.000976562H39.6774C38.077 0.000976562 36.7742 1.30374 36.7742 2.9042V14.5171C36.7742 16.1176 38.077 17.4203 39.6774 17.4203H44.5161V21.813L53.2258 17.942V25.1623C53.2258 26.7627 54.5286 28.0655 56.129 28.0655H57.0968C57.6307 28.0655 58.0645 28.5002 58.0645 29.0332V34.8397C58.0645 35.3736 57.6307 35.8074 57.0968 35.8074H54.1936V33.8719H52.2581V37.7429H57.0968C58.6972 37.7429 60 36.4401 60 34.8397V29.0332C60 27.4328 58.6972 26.13 57.0968 26.13H56.129C55.5951 26.13 55.1613 25.6953 55.1613 25.1623V17.4203H57.0968ZM39.6774 15.4848C39.1435 15.4848 38.7097 15.0501 38.7097 14.5171V2.9042C38.7097 2.37119 39.1435 1.93646 39.6774 1.93646H57.0968C57.6307 1.93646 58.0645 2.37119 58.0645 2.9042V14.5171C58.0645 15.0501 57.6307 15.4848 57.0968 15.4848H53.9885L46.4516 18.8341V15.4848H39.6774Z" fill="url(#paint9_linear)"/>
<path d="M38.7097 38.7109V40.6464C38.7097 41.1803 38.2759 41.6141 37.7419 41.6141H35.8065C35.2725 41.6141 34.8387 41.1803 34.8387 40.6464V35.285C36.0233 34.2214 36.7742 32.6838 36.7742 30.9689V23.227C36.7742 14.1554 29.3942 6.77539 20.3226 6.77539C11.2509 6.77539 3.87097 14.1554 3.87097 23.227V30.9689C3.87097 34.1713 6.47508 36.7754 9.67742 36.7754H9.86218C10.4699 40.0666 12.5943 42.8276 15.4839 44.3104V45.6982L5.13215 48.2867C2.11079 49.0404 0 51.7423 0 54.8577V60.0012H40.6452V54.8577C40.6452 51.7423 38.5344 49.0404 35.513 48.2867L25.1613 45.6982V44.3104C28.0508 42.8276 30.1753 40.0675 30.783 36.7754H30.9677C31.6472 36.7754 32.2965 36.6516 32.9032 36.4366V40.6464C32.9032 42.2468 34.206 43.5496 35.8065 43.5496H37.7419C39.3424 43.5496 40.6452 42.2468 40.6452 40.6464V38.7109C40.6452 38.1769 41.0789 37.7431 41.6129 37.7431H44.5161V39.6786H46.4516V35.8076H41.6129C40.0124 35.8076 38.7097 37.1104 38.7097 38.7109ZM20.3226 8.71087C28.3268 8.71087 34.8387 15.2228 34.8387 23.227V26.6528C34.2792 26.1505 33.6253 25.7565 32.9032 25.5013V23.227C32.9032 16.2903 27.2593 10.6464 20.3226 10.6464C13.3858 10.6464 7.74194 16.2903 7.74194 23.227V25.5013C7.01991 25.7579 6.36593 26.1515 5.80645 26.6528V23.227C5.80645 15.2228 12.3184 8.71087 20.3226 8.71087ZM5.80645 30.9689C5.80645 28.834 7.54253 27.098 9.67742 27.098H9.71333C9.69868 27.2927 9.67742 27.4859 9.67742 27.6834V34.8399C7.54253 34.8399 5.80645 33.1038 5.80645 30.9689ZM10.1225 25.1625H9.67742V23.227C9.67742 17.3577 14.4533 12.5818 20.3226 12.5818C26.1919 12.5818 30.9677 17.3577 30.9677 23.227V25.1625H24.5834C20.8065 25.1625 17.1018 23.863 14.1532 21.5037L13.6008 21.0614L13.0121 21.4541C11.6517 22.3609 10.657 23.6693 10.1225 25.1625ZM16.1544 47.524L18.9541 50.3238L15.8624 53.4146L13.8678 48.0963L16.1544 47.524ZM1.93548 54.8577C1.93548 52.633 3.44333 50.7032 5.60043 50.1631L11.9768 48.5683L15.1054 56.9094L19.3548 52.66V58.0657H9.67742V54.1947H7.74194V58.0657H1.93548V54.8577ZM38.7097 54.8577V58.0657H32.9032V54.1947H30.9677V58.0657H21.2903V52.66L25.5398 56.9094L28.6684 48.5683L35.0447 50.1631C37.2018 50.7032 38.7097 52.633 38.7097 54.8577ZM26.7773 48.0963L24.7828 53.4146L21.691 50.3238L24.4908 47.524L26.7773 48.0963ZM23.2258 46.0521L20.3226 48.9553L17.4194 46.0521V45.073C18.3436 45.3353 19.3151 45.4851 20.3226 45.4851C21.33 45.4851 22.3015 45.3353 23.2258 45.073V46.0521ZM29.0323 34.8399C29.0323 39.6427 25.1254 43.5496 20.3226 43.5496C15.5198 43.5496 11.6129 39.6427 11.6129 34.8399V27.6834C11.6129 26.0508 12.3241 24.5217 13.5437 23.4746C16.7304 25.8165 20.6217 27.098 24.5834 27.098H29.0323V34.8399ZM30.9677 27.098C33.1026 27.098 34.8387 28.834 34.8387 30.9689C34.8387 33.1038 33.1026 34.8399 30.9677 34.8399V27.098Z" fill="url(#paint10_linear)"/>
<path d="M48.3871 33.8721H50.3226V39.6785H48.3871V33.8721Z" fill="url(#paint11_linear)"/>
<defs>
<linearGradient id="paint0_linear" x1="15.4839" y1="29.0332" x2="15.4839" y2="30.9687" gradientUnits="userSpaceOnUse">
<stop stop-color="#3831FB"/>
<stop offset="1" stop-color="#C546FB"/>
</linearGradient>
<linearGradient id="paint1_linear" x1="25.1613" y1="29.0332" x2="25.1613" y2="30.9687" gradientUnits="userSpaceOnUse">
<stop stop-color="#3831FB"/>
<stop offset="1" stop-color="#C546FB"/>
</linearGradient>
<linearGradient id="paint2_linear" x1="20.3226" y1="36.7754" x2="20.3226" y2="40.6464" gradientUnits="userSpaceOnUse">
<stop stop-color="#3831FB"/>
<stop offset="1" stop-color="#C546FB"/>
</linearGradient>
<linearGradient id="paint3_linear" x1="41.6129" y1="3.87207" x2="41.6129" y2="5.80755" gradientUnits="userSpaceOnUse">
<stop stop-color="#3831FB"/>
<stop offset="1" stop-color="#C546FB"/>
</linearGradient>
<linearGradient id="paint4_linear" x1="50.3226" y1="3.87207" x2="50.3226" y2="5.80755" gradientUnits="userSpaceOnUse">
<stop stop-color="#3831FB"/>
<stop offset="1" stop-color="#C546FB"/>
</linearGradient>
<linearGradient id="paint5_linear" x1="50.3226" y1="7.74316" x2="50.3226" y2="9.67865" gradientUnits="userSpaceOnUse">
<stop stop-color="#3831FB"/>
<stop offset="1" stop-color="#C546FB"/>
</linearGradient>
<linearGradient id="paint6_linear" x1="41.6129" y1="7.74316" x2="41.6129" y2="9.67865" gradientUnits="userSpaceOnUse">
<stop stop-color="#3831FB"/>
<stop offset="1" stop-color="#C546FB"/>
</linearGradient>
<linearGradient id="paint7_linear" x1="41.6129" y1="11.6143" x2="41.6129" y2="13.5497" gradientUnits="userSpaceOnUse">
<stop stop-color="#3831FB"/>
<stop offset="1" stop-color="#C546FB"/>
</linearGradient>
<linearGradient id="paint8_linear" x1="50.3226" y1="11.6143" x2="50.3226" y2="13.5497" gradientUnits="userSpaceOnUse">
<stop stop-color="#3831FB"/>
<stop offset="1" stop-color="#C546FB"/>
</linearGradient>
<linearGradient id="paint9_linear" x1="48.3871" y1="0.000976562" x2="48.3871" y2="37.7429" gradientUnits="userSpaceOnUse">
<stop stop-color="#3831FB"/>
<stop offset="1" stop-color="#C546FB"/>
</linearGradient>
<linearGradient id="paint10_linear" x1="23.2258" y1="6.77539" x2="23.2258" y2="60.0012" gradientUnits="userSpaceOnUse">
<stop stop-color="#3831FB"/>
<stop offset="1" stop-color="#C546FB"/>
</linearGradient>
<linearGradient id="paint11_linear" x1="49.3548" y1="33.8721" x2="49.3548" y2="39.6785" gradientUnits="userSpaceOnUse">
<stop stop-color="#3831FB"/>
<stop offset="1" stop-color="#C546FB"/>
</linearGradient>
</defs>
</svg>
