<svg width="62" height="62" viewBox="0 0 62 62" fill="none" xmlns="http://www.w3.org/2000/svg">
<mask id="path-1-outside-1" maskUnits="userSpaceOnUse" x="0.010498" y="0.0107422" width="62" height="62" fill="black">
<rect fill="white" x="0.010498" y="0.0107422" width="62" height="62"/>
<path fill-rule="evenodd" clip-rule="evenodd" d="M60.8585 12.9789C61.4361 16.8535 60.3514 20.7919 57.8715 23.8244C57.0472 24.8401 56.9624 26.2682 57.6606 27.3743C60.1763 31.3767 61.3244 36.0879 60.9325 40.799C60.0017 51.4152 51.6444 59.8645 41.0389 60.9116C40.3657 60.9709 39.6993 61.0005 39.0395 61.0005C30.4734 61.0022 22.6888 56.0211 19.1008 48.2426C18.0057 48.0902 16.9015 48.0107 15.7959 48.0047H15.2961L17.9692 58.6013C18.0858 59.2051 17.9242 59.8293 17.5294 60.3008C17.15 60.7444 16.5955 61 16.0118 61.0005H10.1787C9.07442 61.0005 8.17933 60.1055 8.17933 59.0012L7.10068 47.9377C3.65527 47.4901 1.06135 44.58 1.01124 41.106C0.955509 37.2456 4.0399 34.0709 7.90042 34.0151C6.28194 30.7815 5.68175 27.1332 6.17897 23.5515C7.33735 15.5285 13.6767 9.24704 21.71 8.16239C24.0861 7.85623 26.4995 8.02893 28.8078 8.67022C31.5529 9.35538 34.4442 8.36182 36.1884 6.13403C38.3979 3.43927 41.5336 1.66583 44.9816 1.16049C52.6295 0.0397248 59.7378 5.33104 60.8585 12.9789ZM3.11095 40.0122C2.56162 42.7176 4.30932 45.356 7.0147 45.9054V36.1085C5.0477 36.5078 3.51032 38.0452 3.11095 40.0122ZM10.1737 58.9012L16.0118 59.0012L13.2317 48.0047H9.11403L10.1737 58.9012ZM9.01406 36.0085V46.0053H11.0134V36.0085H9.01406ZM13.0128 46.0053H15.7929C18.6941 46.0043 21.5763 46.4723 24.3282 47.3909L29.0077 48.9504V33.0634L24.3282 34.6229C21.5763 35.5417 18.6941 36.0095 15.7929 36.0085H13.0128V46.0053ZM37.4368 58.9367C48.4259 59.8197 58.0501 51.6272 58.9331 40.638C59.2897 36.3554 58.2464 32.0728 55.9601 28.4339C54.8078 26.602 54.9505 24.2396 56.315 22.5598C60.5003 17.4284 59.7334 9.87584 54.602 5.69067C49.4707 1.50551 41.9182 2.27239 37.7329 7.40363C35.4862 10.2451 31.7767 11.4964 28.2679 10.5966C27.583 10.4067 26.8862 10.2625 26.1822 10.1652C17.4371 8.95726 9.36845 15.0673 8.16034 23.8124C7.67049 27.3415 8.38139 30.9328 10.1787 34.0091H15.7929C18.4783 34.0094 21.1461 33.5763 23.6934 32.7266L34.6899 29.0617C34.7918 29.0277 34.8986 29.0105 35.006 29.0105C35.5581 29.0106 36.0056 29.4583 36.0055 30.0104V35.0088C38.2139 35.0088 40.0042 36.7991 40.0042 39.0076V43.0063C40.0042 45.2147 38.2139 47.005 36.0055 47.005V52.0034C36.0055 52.5555 35.5579 53.0031 35.0058 53.0031C34.8994 53.0023 34.7937 52.9849 34.6929 52.9511L23.6964 49.2863C22.9916 49.0524 22.2778 48.8574 21.5601 48.6865C24.7973 54.5506 30.7599 58.4001 37.4368 58.9367ZM31.0071 32.3967V49.6172L34.0061 50.6169V31.397L31.0071 32.3967ZM36.0055 37.0082V45.0056C37.1096 45.0056 38.0048 44.1106 38.0048 43.0063V39.0076C38.0048 37.9033 37.1097 37.0082 36.0055 37.0082ZM15.0122 42.0059H19.0109V44.0052H15.0122V42.0059ZM19.0109 38.0078H15.0122V40.0072H19.0109V38.0078ZM51.5554 14.1826C51.6653 14.2558 51.7594 14.35 51.8326 14.4597C52.1389 14.9191 52.0148 15.5398 51.5554 15.846L45.5573 19.8448C45.2505 20.0496 44.8559 20.0688 44.5306 19.8947C44.2055 19.7207 44.0027 19.3818 44.0028 19.013V11.0156C44.0028 10.818 44.0613 10.6249 44.1709 10.4606C44.4773 10.0013 45.0981 9.87743 45.5573 10.1838L51.5554 14.1826ZM49.2012 15.0143L46.0022 12.884V17.1446L49.2012 15.0143ZM47.0019 6.01855C42.033 6.01855 38.0048 10.0466 38.0048 15.0157C38.0103 19.9824 42.0352 24.0073 47.0019 24.0128C51.9709 24.0128 55.999 19.9846 55.999 15.0157C55.999 10.0468 51.9708 6.01855 47.0019 6.01855ZM47.0019 22.0135C43.1371 22.0135 40.0041 18.8805 40.0041 15.0157C40.0085 11.1528 43.139 8.02229 47.0019 8.01792C50.8667 8.01792 53.9997 11.1509 53.9997 15.0157C53.9997 18.8805 50.8667 22.0135 47.0019 22.0135ZM26.0086 19.0134H27.0083C28.6646 19.0134 30.0073 20.3562 30.0073 22.0124V27.0108C30.0073 28.6672 28.6646 30.0099 27.0083 30.0099H18.0111C18.0111 30.562 17.5635 31.0096 17.0115 31.0096H13.0127C12.4607 31.0096 12.0131 30.562 12.0131 30.0099V19.0134C12.0131 18.4613 12.4607 18.0137 13.0127 18.0137H17.0115C17.5635 18.0137 18.0111 18.4613 18.0111 19.0134C18.5632 19.0134 19.0108 18.5658 19.0108 18.0137V15.0147C19.0108 13.3583 20.3535 12.0156 22.0099 12.0156C23.6662 12.0156 25.0089 13.3583 25.0089 15.0147V18.0137C25.0089 18.5658 25.4565 19.0134 26.0086 19.0134ZM14.0124 29.0102H16.0118V20.0131H14.0124V29.0102ZM27.0083 28.0105C27.5604 28.0105 28.008 27.5629 28.008 27.0108V22.0124C28.008 21.4604 27.5604 21.0128 27.0083 21.0128H26.0086C24.3523 21.0128 23.0096 19.6701 23.0096 18.0137V15.0147C23.0096 14.4626 22.5619 14.015 22.0099 14.015C21.4578 14.015 21.0102 14.4626 21.0102 15.0147V18.0137C21.0102 19.6701 19.6675 21.0128 18.0111 21.0128V28.0105H27.0083ZM56.119 37.3099L55.6931 36.8821C54.6802 35.8758 53.0996 35.7196 51.9094 36.5082L50.8287 37.229L49.748 36.5082C48.5579 35.7188 46.9768 35.875 45.9642 36.8821L45.5364 37.3099C44.3656 38.4811 44.3656 40.3794 45.5364 41.5506L50.1209 46.1341C50.5113 46.5243 51.1441 46.5243 51.5345 46.1341L56.119 41.5506C57.2898 40.3794 57.2898 38.4811 56.119 37.3099ZM54.7072 40.1363L54.7065 40.137L50.8287 44.0138L46.9519 40.141C46.5617 39.7506 46.5617 39.1178 46.9519 38.7275L47.3788 38.3006C47.7158 37.9635 48.2439 37.9112 48.6404 38.1756L50.2749 39.2653C50.6108 39.4895 51.0486 39.4895 51.3845 39.2653L53.02 38.1756C53.4161 37.9115 53.9436 37.9633 54.2806 38.2996V38.2956L54.7065 38.7225C55.0971 39.1127 55.0975 39.7456 54.7072 40.1363ZM39.0358 31.7676L40.0365 27.7691L41.9751 28.2543L40.9744 32.2528L39.0358 31.7676ZM45.5539 31.115L41.5554 33.1143L42.4495 34.9025L46.448 32.9032L45.5539 31.115ZM39.0305 51.2461L40.9691 50.7615L41.9686 54.7599L40.03 55.2445L39.0305 51.2461ZM42.4492 48.1092L41.5551 49.8975L45.5535 51.8967L46.4476 50.1085L42.4492 48.1092ZM4.0156 28.0109H2.01624C2.01624 13.2156 10.8264 4.01855 25.0089 4.01855V6.01792C12.06 6.01792 4.0156 14.4452 4.0156 28.0109Z"/>
</mask>
<path fill-rule="evenodd" clip-rule="evenodd" d="M60.8585 12.9789C61.4361 16.8535 60.3514 20.7919 57.8715 23.8244C57.0472 24.8401 56.9624 26.2682 57.6606 27.3743C60.1763 31.3767 61.3244 36.0879 60.9325 40.799C60.0017 51.4152 51.6444 59.8645 41.0389 60.9116C40.3657 60.9709 39.6993 61.0005 39.0395 61.0005C30.4734 61.0022 22.6888 56.0211 19.1008 48.2426C18.0057 48.0902 16.9015 48.0107 15.7959 48.0047H15.2961L17.9692 58.6013C18.0858 59.2051 17.9242 59.8293 17.5294 60.3008C17.15 60.7444 16.5955 61 16.0118 61.0005H10.1787C9.07442 61.0005 8.17933 60.1055 8.17933 59.0012L7.10068 47.9377C3.65527 47.4901 1.06135 44.58 1.01124 41.106C0.955509 37.2456 4.0399 34.0709 7.90042 34.0151C6.28194 30.7815 5.68175 27.1332 6.17897 23.5515C7.33735 15.5285 13.6767 9.24704 21.71 8.16239C24.0861 7.85623 26.4995 8.02893 28.8078 8.67022C31.5529 9.35538 34.4442 8.36182 36.1884 6.13403C38.3979 3.43927 41.5336 1.66583 44.9816 1.16049C52.6295 0.0397248 59.7378 5.33104 60.8585 12.9789ZM3.11095 40.0122C2.56162 42.7176 4.30932 45.356 7.0147 45.9054V36.1085C5.0477 36.5078 3.51032 38.0452 3.11095 40.0122ZM10.1737 58.9012L16.0118 59.0012L13.2317 48.0047H9.11403L10.1737 58.9012ZM9.01406 36.0085V46.0053H11.0134V36.0085H9.01406ZM13.0128 46.0053H15.7929C18.6941 46.0043 21.5763 46.4723 24.3282 47.3909L29.0077 48.9504V33.0634L24.3282 34.6229C21.5763 35.5417 18.6941 36.0095 15.7929 36.0085H13.0128V46.0053ZM37.4368 58.9367C48.4259 59.8197 58.0501 51.6272 58.9331 40.638C59.2897 36.3554 58.2464 32.0728 55.9601 28.4339C54.8078 26.602 54.9505 24.2396 56.315 22.5598C60.5003 17.4284 59.7334 9.87584 54.602 5.69067C49.4707 1.50551 41.9182 2.27239 37.7329 7.40363C35.4862 10.2451 31.7767 11.4964 28.2679 10.5966C27.583 10.4067 26.8862 10.2625 26.1822 10.1652C17.4371 8.95726 9.36845 15.0673 8.16034 23.8124C7.67049 27.3415 8.38139 30.9328 10.1787 34.0091H15.7929C18.4783 34.0094 21.1461 33.5763 23.6934 32.7266L34.6899 29.0617C34.7918 29.0277 34.8986 29.0105 35.006 29.0105C35.5581 29.0106 36.0056 29.4583 36.0055 30.0104V35.0088C38.2139 35.0088 40.0042 36.7991 40.0042 39.0076V43.0063C40.0042 45.2147 38.2139 47.005 36.0055 47.005V52.0034C36.0055 52.5555 35.5579 53.0031 35.0058 53.0031C34.8994 53.0023 34.7937 52.9849 34.6929 52.9511L23.6964 49.2863C22.9916 49.0524 22.2778 48.8574 21.5601 48.6865C24.7973 54.5506 30.7599 58.4001 37.4368 58.9367ZM31.0071 32.3967V49.6172L34.0061 50.6169V31.397L31.0071 32.3967ZM36.0055 37.0082V45.0056C37.1096 45.0056 38.0048 44.1106 38.0048 43.0063V39.0076C38.0048 37.9033 37.1097 37.0082 36.0055 37.0082ZM15.0122 42.0059H19.0109V44.0052H15.0122V42.0059ZM19.0109 38.0078H15.0122V40.0072H19.0109V38.0078ZM51.5554 14.1826C51.6653 14.2558 51.7594 14.35 51.8326 14.4597C52.1389 14.9191 52.0148 15.5398 51.5554 15.846L45.5573 19.8448C45.2505 20.0496 44.8559 20.0688 44.5306 19.8947C44.2055 19.7207 44.0027 19.3818 44.0028 19.013V11.0156C44.0028 10.818 44.0613 10.6249 44.1709 10.4606C44.4773 10.0013 45.0981 9.87743 45.5573 10.1838L51.5554 14.1826ZM49.2012 15.0143L46.0022 12.884V17.1446L49.2012 15.0143ZM47.0019 6.01855C42.033 6.01855 38.0048 10.0466 38.0048 15.0157C38.0103 19.9824 42.0352 24.0073 47.0019 24.0128C51.9709 24.0128 55.999 19.9846 55.999 15.0157C55.999 10.0468 51.9708 6.01855 47.0019 6.01855ZM47.0019 22.0135C43.1371 22.0135 40.0041 18.8805 40.0041 15.0157C40.0085 11.1528 43.139 8.02229 47.0019 8.01792C50.8667 8.01792 53.9997 11.1509 53.9997 15.0157C53.9997 18.8805 50.8667 22.0135 47.0019 22.0135ZM26.0086 19.0134H27.0083C28.6646 19.0134 30.0073 20.3562 30.0073 22.0124V27.0108C30.0073 28.6672 28.6646 30.0099 27.0083 30.0099H18.0111C18.0111 30.562 17.5635 31.0096 17.0115 31.0096H13.0127C12.4607 31.0096 12.0131 30.562 12.0131 30.0099V19.0134C12.0131 18.4613 12.4607 18.0137 13.0127 18.0137H17.0115C17.5635 18.0137 18.0111 18.4613 18.0111 19.0134C18.5632 19.0134 19.0108 18.5658 19.0108 18.0137V15.0147C19.0108 13.3583 20.3535 12.0156 22.0099 12.0156C23.6662 12.0156 25.0089 13.3583 25.0089 15.0147V18.0137C25.0089 18.5658 25.4565 19.0134 26.0086 19.0134ZM14.0124 29.0102H16.0118V20.0131H14.0124V29.0102ZM27.0083 28.0105C27.5604 28.0105 28.008 27.5629 28.008 27.0108V22.0124C28.008 21.4604 27.5604 21.0128 27.0083 21.0128H26.0086C24.3523 21.0128 23.0096 19.6701 23.0096 18.0137V15.0147C23.0096 14.4626 22.5619 14.015 22.0099 14.015C21.4578 14.015 21.0102 14.4626 21.0102 15.0147V18.0137C21.0102 19.6701 19.6675 21.0128 18.0111 21.0128V28.0105H27.0083ZM56.119 37.3099L55.6931 36.8821C54.6802 35.8758 53.0996 35.7196 51.9094 36.5082L50.8287 37.229L49.748 36.5082C48.5579 35.7188 46.9768 35.875 45.9642 36.8821L45.5364 37.3099C44.3656 38.4811 44.3656 40.3794 45.5364 41.5506L50.1209 46.1341C50.5113 46.5243 51.1441 46.5243 51.5345 46.1341L56.119 41.5506C57.2898 40.3794 57.2898 38.4811 56.119 37.3099ZM54.7072 40.1363L54.7065 40.137L50.8287 44.0138L46.9519 40.141C46.5617 39.7506 46.5617 39.1178 46.9519 38.7275L47.3788 38.3006C47.7158 37.9635 48.2439 37.9112 48.6404 38.1756L50.2749 39.2653C50.6108 39.4895 51.0486 39.4895 51.3845 39.2653L53.02 38.1756C53.4161 37.9115 53.9436 37.9633 54.2806 38.2996V38.2956L54.7065 38.7225C55.0971 39.1127 55.0975 39.7456 54.7072 40.1363ZM39.0358 31.7676L40.0365 27.7691L41.9751 28.2543L40.9744 32.2528L39.0358 31.7676ZM45.5539 31.115L41.5554 33.1143L42.4495 34.9025L46.448 32.9032L45.5539 31.115ZM39.0305 51.2461L40.9691 50.7615L41.9686 54.7599L40.03 55.2445L39.0305 51.2461ZM42.4492 48.1092L41.5551 49.8975L45.5535 51.8967L46.4476 50.1085L42.4492 48.1092ZM4.0156 28.0109H2.01624C2.01624 13.2156 10.8264 4.01855 25.0089 4.01855V6.01792C12.06 6.01792 4.0156 14.4452 4.0156 28.0109Z" fill="url(#paint0_linear)"/>
<path d="M57.8715 23.8244L57.6393 23.6345L57.6385 23.6354L57.8715 23.8244ZM60.8585 12.9789L60.5617 13.0224L60.5618 13.0231L60.8585 12.9789ZM57.6606 27.3743L57.9146 27.2146L57.9142 27.2141L57.6606 27.3743ZM60.9325 40.799L61.2314 40.8252L61.2315 40.8238L60.9325 40.799ZM41.0389 60.9116L41.0652 61.2104L41.0683 61.2101L41.0389 60.9116ZM39.0395 61.0005L39.0395 60.7005L39.0394 60.7005L39.0395 61.0005ZM19.1008 48.2426L19.3733 48.117L19.3046 47.9681L19.1422 47.9455L19.1008 48.2426ZM15.7959 48.0047L15.7975 47.7047H15.7959V48.0047ZM15.2961 48.0047V47.7047H14.911L15.0052 48.0781L15.2961 48.0047ZM17.9692 58.6013L18.2638 58.5444L18.2622 58.5361L18.2601 58.5279L17.9692 58.6013ZM17.5294 60.3008L17.7574 60.4958L17.7593 60.4934L17.5294 60.3008ZM16.0118 61.0005V61.3005L16.0121 61.3005L16.0118 61.0005ZM8.17933 59.0012H8.47933V58.9866L8.47792 58.9721L8.17933 59.0012ZM7.10068 47.9377L7.39926 47.9086L7.37609 47.671L7.13932 47.6402L7.10068 47.9377ZM1.01124 41.106L1.31121 41.1017L1.31121 41.1017L1.01124 41.106ZM7.90042 34.0151L7.90475 34.3151L8.38259 34.3082L8.16869 33.8809L7.90042 34.0151ZM6.17897 23.5515L5.88204 23.5086L5.88182 23.5102L6.17897 23.5515ZM21.71 8.16239L21.6717 7.86484L21.6699 7.86508L21.71 8.16239ZM28.8078 8.67022L28.7274 8.95938L28.7351 8.96129L28.8078 8.67022ZM36.1884 6.13403L35.9564 5.94377L35.9522 5.94909L36.1884 6.13403ZM44.9816 1.16049L44.9381 0.863663L44.9381 0.863663L44.9816 1.16049ZM7.0147 45.9054L6.95501 46.1994L7.3147 46.2724V45.9054H7.0147ZM3.11095 40.0122L3.40495 40.0719L3.40495 40.0719L3.11095 40.0122ZM7.0147 36.1085H7.3147V35.7414L6.95501 35.8145L7.0147 36.1085ZM16.0118 59.0012L16.0067 59.3011L16.3988 59.3078L16.3027 58.9276L16.0118 59.0012ZM10.1737 58.9012L9.8751 58.9303L9.901 59.1966L10.1686 59.2012L10.1737 58.9012ZM13.2317 48.0047L13.5226 47.9312L13.4653 47.7047H13.2317V48.0047ZM9.11403 48.0047V47.7047H8.78344L8.81544 48.0337L9.11403 48.0047ZM9.01406 46.0053H8.71406V46.3053H9.01406V46.0053ZM9.01406 36.0085V35.7085H8.71406V36.0085H9.01406ZM11.0134 46.0053V46.3053H11.3134V46.0053H11.0134ZM11.0134 36.0085H11.3134V35.7085H11.0134V36.0085ZM15.7929 46.0053L15.7929 46.3053L15.793 46.3053L15.7929 46.0053ZM13.0128 46.0053H12.7128V46.3053H13.0128V46.0053ZM24.3282 47.3909L24.2332 47.6754L24.2333 47.6755L24.3282 47.3909ZM29.0077 48.9504L28.9128 49.235L29.3077 49.3666V48.9504H29.0077ZM29.0077 33.0634H29.3077V32.6473L28.9128 32.7788L29.0077 33.0634ZM24.3282 34.6229L24.2333 34.3383L24.2332 34.3384L24.3282 34.6229ZM15.7929 36.0085L15.793 35.7085H15.7929V36.0085ZM13.0128 36.0085V35.7085H12.7128V36.0085H13.0128ZM58.9331 40.638L58.6342 40.6131L58.6341 40.614L58.9331 40.638ZM37.4368 58.9367L37.4127 59.2357L37.4127 59.2357L37.4368 58.9367ZM55.9601 28.4339L56.2141 28.2743L56.214 28.2742L55.9601 28.4339ZM56.315 22.5598L56.0825 22.3702L56.0821 22.3707L56.315 22.5598ZM54.602 5.69067L54.4124 5.92315L54.4124 5.92315L54.602 5.69067ZM37.7329 7.40363L37.5004 7.21399L37.4976 7.21756L37.7329 7.40363ZM28.2679 10.5966L28.1877 10.8858L28.1934 10.8872L28.2679 10.5966ZM26.1822 10.1652L26.1412 10.4624L26.1412 10.4624L26.1822 10.1652ZM8.16034 23.8124L8.45749 23.8536L8.45752 23.8534L8.16034 23.8124ZM10.1787 34.0091L9.91966 34.1605L10.0065 34.3091H10.1787V34.0091ZM15.7929 34.0091L15.7929 33.7091H15.7929V34.0091ZM23.6934 32.7266L23.5985 32.4419L23.5985 32.442L23.6934 32.7266ZM34.6899 29.0617L34.7847 29.3463L34.7847 29.3463L34.6899 29.0617ZM35.006 29.0105L35.0061 28.7105H35.006V29.0105ZM36.0055 30.0104L35.7055 30.0104V30.0104H36.0055ZM36.0055 35.0088H35.7055V35.3088H36.0055V35.0088ZM36.0055 47.005V46.705H35.7055V47.005H36.0055ZM35.0058 53.0031L35.0037 53.3031H35.0058V53.0031ZM34.6929 52.9511L34.7881 52.6666L34.7877 52.6665L34.6929 52.9511ZM23.6964 49.2863L23.7912 49.0017L23.7909 49.0016L23.6964 49.2863ZM21.5601 48.6865L21.6296 48.3946L20.9695 48.2374L21.2974 48.8315L21.5601 48.6865ZM31.0071 49.6172H30.7071V49.8334L30.9122 49.9018L31.0071 49.6172ZM31.0071 32.3967L30.9122 32.1121L30.7071 32.1804V32.3967H31.0071ZM34.0061 50.6169L33.9112 50.9015L34.3061 51.0331V50.6169H34.0061ZM34.0061 31.397H34.3061V30.9808L33.9112 31.1124L34.0061 31.397ZM36.0055 45.0056H35.7055V45.3056H36.0055V45.0056ZM36.0055 37.0082V36.7082H35.7055V37.0082H36.0055ZM19.0109 42.0059H19.3109V41.7059H19.0109V42.0059ZM15.0122 42.0059V41.7059H14.7122V42.0059H15.0122ZM19.0109 44.0052V44.3052H19.3109V44.0052H19.0109ZM15.0122 44.0052H14.7122V44.3052H15.0122V44.0052ZM15.0122 38.0078V37.7078H14.7122V38.0078H15.0122ZM19.0109 38.0078H19.3109V37.7078H19.0109V38.0078ZM15.0122 40.0072H14.7122V40.3072H15.0122V40.0072ZM19.0109 40.0072V40.3072H19.3109V40.0072H19.0109ZM51.8326 14.4597L52.0822 14.2933L52.0821 14.2932L51.8326 14.4597ZM51.5554 14.1826L51.7218 13.9329L51.7218 13.9329L51.5554 14.1826ZM51.5554 15.846L51.7218 16.0956L51.7218 16.0956L51.5554 15.846ZM45.5573 19.8448L45.3909 19.5951L45.3907 19.5952L45.5573 19.8448ZM44.5306 19.8947L44.389 20.1592L44.3891 20.1592L44.5306 19.8947ZM44.0028 19.013L44.3028 19.0131V19.013H44.0028ZM44.1709 10.4606L43.9213 10.2941L43.9213 10.2942L44.1709 10.4606ZM45.5573 10.1838L45.3908 10.4334L45.3909 10.4334L45.5573 10.1838ZM46.0022 12.884L46.1685 12.6343L45.7022 12.3238V12.884H46.0022ZM49.2012 15.0143L49.3674 15.264L49.7424 15.0143L49.3674 14.7646L49.2012 15.0143ZM46.0022 17.1446H45.7022V17.7048L46.1685 17.3943L46.0022 17.1446ZM38.0048 15.0157L37.7048 15.0157L37.7048 15.016L38.0048 15.0157ZM47.0019 24.0128L47.0016 24.3128H47.0019V24.0128ZM40.0041 15.0157L39.7041 15.0153V15.0157H40.0041ZM47.0019 8.01792L47.0019 7.71792L47.0016 7.71792L47.0019 8.01792ZM18.0111 30.0099V29.7099H17.7111V30.0099H18.0111ZM18.0111 19.0134H17.7111V19.3134H18.0111V19.0134ZM16.0118 29.0102V29.3102H16.3118V29.0102H16.0118ZM14.0124 29.0102H13.7124V29.3102H14.0124V29.0102ZM16.0118 20.0131H16.3118V19.7131H16.0118V20.0131ZM14.0124 20.0131V19.7131H13.7124V20.0131H14.0124ZM18.0111 21.0128V20.7128H17.7111V21.0128H18.0111ZM18.0111 28.0105H17.7111V28.3105H18.0111V28.0105ZM55.6931 36.8821L55.9058 36.6704L55.9046 36.6692L55.6931 36.8821ZM56.119 37.3099L55.9064 37.5216L55.9068 37.522L56.119 37.3099ZM51.9094 36.5082L51.7437 36.2581L51.7429 36.2586L51.9094 36.5082ZM50.8287 37.229L50.6622 37.4785L50.8287 37.5896L50.9952 37.4785L50.8287 37.229ZM49.748 36.5082L49.9145 36.2586L49.9139 36.2582L49.748 36.5082ZM45.9642 36.8821L45.7527 36.6694L45.7521 36.6699L45.9642 36.8821ZM45.5364 37.3099L45.3243 37.0978L45.3242 37.0978L45.5364 37.3099ZM45.5364 41.5506L45.3242 41.7627L45.3243 41.7627L45.5364 41.5506ZM50.1209 46.1341L49.9088 46.3463L49.9088 46.3463L50.1209 46.1341ZM51.5345 46.1341L51.7466 46.3463L51.7466 46.3463L51.5345 46.1341ZM56.119 41.5506L56.3311 41.7627L56.3312 41.7627L56.119 41.5506ZM54.7065 40.137L54.9186 40.3492L54.9186 40.3492L54.7065 40.137ZM54.7072 40.1363L54.9193 40.3484L54.9194 40.3483L54.7072 40.1363ZM50.8287 44.0138L50.6167 44.226L50.8288 44.4379L51.0408 44.2259L50.8287 44.0138ZM46.9519 40.141L46.7398 40.3531L46.7399 40.3533L46.9519 40.141ZM46.9519 38.7275L46.7398 38.5153L46.7398 38.5154L46.9519 38.7275ZM47.3788 38.3006L47.5909 38.5127L47.591 38.5127L47.3788 38.3006ZM48.6404 38.1756L48.474 38.4252L48.474 38.4253L48.6404 38.1756ZM50.2749 39.2653L50.4414 39.0158L50.4413 39.0157L50.2749 39.2653ZM51.3845 39.2653L51.2182 39.0156L51.218 39.0158L51.3845 39.2653ZM53.02 38.1756L53.1863 38.4253L53.1865 38.4252L53.02 38.1756ZM54.2806 38.2996L54.0687 38.512L54.5806 39.0227V38.2996H54.2806ZM54.2806 38.2956L54.493 38.0837L53.9806 37.5701V38.2956H54.2806ZM54.7065 38.7225L54.4941 38.9344L54.4944 38.9347L54.7065 38.7225ZM40.0365 27.7691L40.1093 27.4781L39.8183 27.4053L39.7455 27.6963L40.0365 27.7691ZM39.0358 31.7676L38.7447 31.6947L38.6719 31.9858L38.9629 32.0586L39.0358 31.7676ZM41.9751 28.2543L42.2661 28.3272L42.339 28.0361L42.048 27.9633L41.9751 28.2543ZM40.9744 32.2528L40.9015 32.5438L41.1926 32.6166L41.2654 32.3256L40.9744 32.2528ZM41.5554 33.1143L41.4213 32.8459L41.1529 32.9801L41.2871 33.2484L41.5554 33.1143ZM45.5539 31.115L45.8222 30.9809L45.6881 30.7125L45.4197 30.8467L45.5539 31.115ZM42.4495 34.9025L42.1812 35.0367L42.3154 35.305L42.5837 35.1708L42.4495 34.9025ZM46.448 32.9032L46.5822 33.1716L46.8505 33.0374L46.7163 32.7691L46.448 32.9032ZM40.9691 50.7615L41.2602 50.6887L41.1874 50.3977L40.8964 50.4704L40.9691 50.7615ZM39.0305 51.2461L38.9578 50.955L38.6667 51.0278L38.7395 51.3188L39.0305 51.2461ZM41.9686 54.7599L42.0414 55.051L42.3324 54.9782L42.2597 54.6872L41.9686 54.7599ZM40.03 55.2445L39.739 55.3173L39.8117 55.6083L40.1028 55.5356L40.03 55.2445ZM41.5551 49.8975L41.2867 49.7633L41.1526 50.0316L41.4209 50.1658L41.5551 49.8975ZM42.4492 48.1092L42.5833 47.8409L42.315 47.7067L42.1808 47.9751L42.4492 48.1092ZM45.5535 51.8967L45.4194 52.165L45.6877 52.2992L45.8219 52.0309L45.5535 51.8967ZM46.4476 50.1085L46.716 50.2426L46.8501 49.9743L46.5818 49.8401L46.4476 50.1085ZM2.01624 28.0109H1.71624V28.3109H2.01624V28.0109ZM4.0156 28.0109V28.3109H4.3156V28.0109H4.0156ZM25.0089 4.01855H25.3089V3.71855H25.0089V4.01855ZM25.0089 6.01792V6.31792H25.3089V6.01792H25.0089ZM58.1037 24.0143C60.6372 20.9163 61.7453 16.8929 61.1553 12.9346L60.5618 13.0231C61.1269 16.8141 60.0657 20.6674 57.6393 23.6345L58.1037 24.0143ZM57.9142 27.2141C57.2848 26.2169 57.3613 24.9292 58.1044 24.0134L57.6385 23.6354C56.7332 24.7509 56.64 26.3196 57.4069 27.5344L57.9142 27.2141ZM61.2315 40.8238C61.6287 36.048 60.4648 31.2721 57.9146 27.2146L57.4066 27.5339C59.8877 31.4814 61.02 36.1277 60.6335 40.7741L61.2315 40.8238ZM41.0683 61.2101C51.8174 60.1489 60.2879 51.5852 61.2314 40.8252L60.6337 40.7728C59.7154 51.2453 51.4713 59.5802 41.0094 60.613L41.0683 61.2101ZM39.0395 61.3005C39.7083 61.3005 40.3835 61.2705 41.0652 61.2104L41.0125 60.6127C40.3479 60.6713 39.6903 60.7005 39.0395 60.7005V61.3005ZM18.8284 48.3683C22.4654 56.2531 30.3563 61.3022 39.0396 61.3005L39.0394 60.7005C30.5904 60.7021 22.9122 55.7892 19.3733 48.117L18.8284 48.3683ZM15.7943 48.3047C16.8866 48.3106 17.9775 48.3891 19.0595 48.5397L19.1422 47.9455C18.0339 47.7912 16.9165 47.7108 15.7975 47.7047L15.7943 48.3047ZM15.2961 48.3047H15.7959V47.7047H15.2961V48.3047ZM18.2601 58.5279L15.5869 47.9313L15.0052 48.0781L17.6783 58.6747L18.2601 58.5279ZM17.7593 60.4934C18.2122 59.9527 18.3975 59.2369 18.2638 58.5444L17.6747 58.6582C17.7741 59.1733 17.6363 59.7059 17.2994 60.1081L17.7593 60.4934ZM16.0121 61.3005C16.6834 61.3 17.321 61.0059 17.7573 60.4957L17.3014 60.1058C16.9789 60.4828 16.5077 60.7001 16.0116 60.7005L16.0121 61.3005ZM10.1787 61.3005H16.0118V60.7005H10.1787V61.3005ZM7.87933 59.0012C7.87933 60.2711 8.90874 61.3005 10.1787 61.3005V60.7005C9.24011 60.7005 8.47933 59.9398 8.47933 59.0012H7.87933ZM6.80209 47.9668L7.88075 59.0303L8.47792 58.9721L7.39926 47.9086L6.80209 47.9668ZM0.711273 41.1103C0.763532 44.7334 3.46877 47.7684 7.06203 48.2352L7.13932 47.6402C3.84178 47.2118 1.35917 44.4266 1.31121 41.1017L0.711273 41.1103ZM7.89609 33.7152C3.86991 33.7733 0.653149 37.0843 0.711273 41.1103L1.31121 41.1017C1.25787 37.407 4.2099 34.3685 7.90475 34.3151L7.89609 33.7152ZM5.88182 23.5102C5.37626 27.152 5.98651 30.8616 7.63215 34.1494L8.16869 33.8809C6.57736 30.7015 5.98724 27.1144 6.47612 23.5927L5.88182 23.5102ZM21.6699 7.86508C13.5037 8.96767 7.05958 15.353 5.88205 23.5086L6.47589 23.5943C7.61512 15.7041 13.8497 9.52641 21.7502 8.45969L21.6699 7.86508ZM28.8881 8.38117C26.5412 7.72916 24.0875 7.55358 21.6717 7.86485L21.7484 8.45993C24.0848 8.15889 26.4578 8.3287 28.7275 8.95928L28.8881 8.38117ZM35.9522 5.94909C34.281 8.08366 31.5106 9.03564 28.8804 8.37915L28.7351 8.96129C31.5951 9.67512 34.6074 8.63999 36.4246 6.31897L35.9522 5.94909ZM44.9381 0.863663C41.4162 1.37983 38.2133 3.19128 35.9564 5.94382L36.4204 6.32425C38.5826 3.68725 41.651 1.95183 45.0251 1.45732L44.9381 0.863663ZM61.1554 12.9354C60.0106 5.12361 52.75 -0.281129 44.9381 0.863663L45.0251 1.45732C52.5091 0.360579 59.465 5.53847 60.5617 13.0224L61.1554 12.9354ZM7.0744 45.6114C4.53139 45.095 2.88859 42.615 3.40495 40.0719L2.81695 39.9525C2.23465 42.8203 4.08724 45.6171 6.95501 46.1994L7.0744 45.6114ZM6.7147 36.1085V45.9054H7.3147V36.1085H6.7147ZM3.40495 40.0719C3.78035 38.223 5.22546 36.7779 7.0744 36.4025L6.95501 35.8145C4.86995 36.2378 3.24029 37.8675 2.81695 39.9525L3.40495 40.0719ZM16.017 58.7012L10.1788 58.6013L10.1686 59.2012L16.0067 59.3011L16.017 58.7012ZM12.9409 48.0782L15.721 59.0747L16.3027 58.9276L13.5226 47.9312L12.9409 48.0782ZM9.11403 48.3047H13.2317V47.7047H9.11403V48.3047ZM10.4723 58.8722L9.41262 47.9756L8.81544 48.0337L9.8751 58.9303L10.4723 58.8722ZM9.31406 46.0053V36.0085H8.71406V46.0053H9.31406ZM11.0134 45.7053H9.01406V46.3053H11.0134V45.7053ZM10.7134 36.0085V46.0053H11.3134V36.0085H10.7134ZM9.01406 36.3085H11.0134V35.7085H9.01406V36.3085ZM15.7929 45.7053H13.0128V46.3053H15.7929V45.7053ZM24.4232 47.1063C21.6407 46.1775 18.7263 45.7043 15.7928 45.7053L15.793 46.3053C18.6619 46.3043 21.512 46.7671 24.2332 47.6754L24.4232 47.1063ZM29.1025 48.6658L24.423 47.1063L24.2333 47.6755L28.9128 49.235L29.1025 48.6658ZM28.7077 33.0634V48.9504H29.3077V33.0634H28.7077ZM24.423 34.9076L29.1025 33.3481L28.9128 32.7788L24.2333 34.3383L24.423 34.9076ZM15.7928 36.3085C18.7263 36.3095 21.6406 35.8365 24.4232 34.9075L24.2332 34.3384C21.512 35.2469 18.6619 35.7095 15.793 35.7085L15.7928 36.3085ZM13.0128 36.3085H15.7929V35.7085H13.0128V36.3085ZM13.3128 46.0053V36.0085H12.7128V46.0053H13.3128ZM58.6341 40.614C57.7643 51.438 48.2847 59.5074 37.4608 58.6377L37.4127 59.2357C48.567 60.132 58.3358 51.8163 59.2322 40.6621L58.6341 40.614ZM55.7061 28.5935C57.9578 32.1774 58.9853 36.3953 58.6342 40.6131L59.2321 40.6629C59.594 36.3155 58.535 31.9682 56.2141 28.2743L55.7061 28.5935ZM56.0821 22.3707C54.6366 24.1503 54.4855 26.6529 55.7062 28.5937L56.214 28.2742C55.1302 26.5511 55.2644 24.329 56.5478 22.7489L56.0821 22.3707ZM54.4124 5.92315C59.4154 10.0036 60.1631 17.3672 56.0825 22.3702L56.5475 22.7494C60.8375 17.4897 60.0514 9.74808 54.7916 5.45819L54.4124 5.92315ZM37.9654 7.59325C42.0459 2.5904 49.4094 1.8427 54.4124 5.92315L54.7916 5.45819C49.5319 1.16831 41.7904 1.95438 37.5004 7.21401L37.9654 7.59325ZM28.1934 10.8872C31.817 11.8165 35.648 10.5242 37.9682 7.58969L37.4976 7.21756C35.3245 9.96601 31.7363 11.1764 28.3425 10.306L28.1934 10.8872ZM26.1412 10.4624C26.832 10.5578 27.5157 10.6993 28.1878 10.8857L28.3481 10.3075C27.6504 10.114 26.9405 9.96712 26.2233 9.86807L26.1412 10.4624ZM8.45752 23.8534C9.64296 15.2725 17.5602 9.27711 26.1412 10.4624L26.2233 9.86807C17.3141 8.63741 9.09395 14.8621 7.86316 23.7713L8.45752 23.8534ZM10.4377 33.8578C8.67437 30.8395 7.9769 27.3161 8.45749 23.8536L7.86319 23.7712C7.36409 27.3669 8.08842 31.026 9.91966 34.1605L10.4377 33.8578ZM15.7929 33.7091H10.1787V34.3091H15.7929V33.7091ZM23.5985 32.442C21.0818 33.2815 18.446 33.7094 15.7929 33.7091L15.7929 34.3091C18.5105 34.3094 21.2104 33.8711 23.7883 33.0111L23.5985 32.442ZM34.595 28.7771L23.5985 32.4419L23.7882 33.0112L34.7847 29.3463L34.595 28.7771ZM35.006 28.7105C34.8665 28.7105 34.7277 28.7329 34.595 28.7771L34.7847 29.3463C34.856 29.3226 34.9307 29.3105 35.006 29.3105V28.7105ZM36.3055 30.0105C36.3056 29.2927 35.7239 28.7107 35.0061 28.7105L35.006 29.3105C35.3923 29.3106 35.7055 29.6239 35.7055 30.0104L36.3055 30.0105ZM36.3055 35.0088V30.0104H35.7055V35.0088H36.3055ZM40.3042 39.0076C40.3042 36.6334 38.3796 34.7088 36.0055 34.7088V35.3088C38.0482 35.3088 39.7042 36.9648 39.7042 39.0076H40.3042ZM40.3042 43.0063V39.0076H39.7042V43.0063H40.3042ZM36.0055 47.305C38.3796 47.305 40.3042 45.3804 40.3042 43.0063H39.7042C39.7042 45.049 38.0482 46.705 36.0055 46.705V47.305ZM36.3055 52.0034V47.005H35.7055V52.0034H36.3055ZM35.0058 53.3031C35.7235 53.3031 36.3055 52.7212 36.3055 52.0034H35.7055C35.7055 52.3898 35.3922 52.7031 35.0058 52.7031V53.3031ZM34.5977 53.2356C34.7287 53.2795 34.8659 53.3021 35.0037 53.3031L35.0079 52.7031C34.933 52.7026 34.8587 52.6902 34.7881 52.6666L34.5977 53.2356ZM23.6015 49.5709L34.598 53.2357L34.7877 52.6665L23.7912 49.0017L23.6015 49.5709ZM21.4906 48.9783C22.202 49.1478 22.9072 49.3404 23.6019 49.571L23.7909 49.0016C23.076 48.7643 22.3536 48.5671 21.6296 48.3946L21.4906 48.9783ZM37.4608 58.6377C30.8843 58.1092 25.0113 54.3175 21.8227 48.5415L21.2974 48.8315C24.5833 54.7837 30.6355 58.6911 37.4127 59.2357L37.4608 58.6377ZM31.3071 49.6172V32.3967H30.7071V49.6172H31.3071ZM34.101 50.3322L31.1019 49.3326L30.9122 49.9018L33.9112 50.9015L34.101 50.3322ZM33.7061 31.397V50.6169H34.3061V31.397H33.7061ZM31.1019 32.6813L34.101 31.6816L33.9112 31.1124L30.9122 32.1121L31.1019 32.6813ZM36.3055 45.0056V37.0082H35.7055V45.0056H36.3055ZM37.7048 43.0063C37.7048 43.9449 36.9439 44.7056 36.0055 44.7056V45.3056C37.2753 45.3056 38.3048 44.2763 38.3048 43.0063H37.7048ZM37.7048 39.0076V43.0063H38.3048V39.0076H37.7048ZM36.0055 37.3082C36.944 37.3082 37.7048 38.069 37.7048 39.0076H38.3048C38.3048 37.7376 37.2754 36.7082 36.0055 36.7082V37.3082ZM19.0109 41.7059H15.0122V42.3059H19.0109V41.7059ZM19.3109 44.0052V42.0059H18.7109V44.0052H19.3109ZM15.0122 44.3052H19.0109V43.7052H15.0122V44.3052ZM14.7122 42.0059V44.0052H15.3122V42.0059H14.7122ZM15.0122 38.3078H19.0109V37.7078H15.0122V38.3078ZM15.3122 40.0072V38.0078H14.7122V40.0072H15.3122ZM19.0109 39.7072H15.0122V40.3072H19.0109V39.7072ZM18.7109 38.0078V40.0072H19.3109V38.0078H18.7109ZM52.0821 14.2932C51.987 14.1507 51.8647 14.0282 51.7218 13.9329L51.389 14.4322C51.4658 14.4834 51.5317 14.5493 51.5831 14.6263L52.0821 14.2932ZM51.7218 16.0956C52.3191 15.6974 52.4804 14.8905 52.0822 14.2933L51.583 14.6261C51.7973 14.9477 51.7105 15.3821 51.389 15.5964L51.7218 16.0956ZM45.7237 20.0944L51.7218 16.0956L51.389 15.5964L45.3909 19.5951L45.7237 20.0944ZM44.3891 20.1592C44.812 20.3856 45.325 20.3605 45.7239 20.0943L45.3907 19.5952C45.176 19.7386 44.8998 19.7521 44.6722 19.6302L44.3891 20.1592ZM43.7028 19.0129C43.7026 19.4923 43.9663 19.9329 44.389 20.1592L44.6722 19.6303C44.4447 19.5084 44.3027 19.2713 44.3028 19.0131L43.7028 19.0129ZM43.7028 11.0156V19.013H44.3028V11.0156H43.7028ZM43.9213 10.2942C43.7788 10.5078 43.7028 10.7588 43.7028 11.0156H44.3028C44.3028 10.8773 44.3437 10.7421 44.4205 10.6271L43.9213 10.2942ZM45.7238 9.93428C45.1268 9.53594 44.3197 9.69691 43.9213 10.2941L44.4205 10.6271C44.6349 10.3056 45.0694 10.2189 45.3908 10.4334L45.7238 9.93428ZM51.7218 13.9329L45.7237 9.93422L45.3909 10.4334L51.389 14.4322L51.7218 13.9329ZM45.8359 13.1337L49.0349 15.264L49.3674 14.7646L46.1685 12.6343L45.8359 13.1337ZM46.3022 17.1446V12.884H45.7022V17.1446H46.3022ZM49.0349 14.7646L45.8359 16.8949L46.1685 17.3943L49.3674 15.264L49.0349 14.7646ZM38.3048 15.0157C38.3048 10.2123 42.1987 6.31855 47.0019 6.31855V5.71855C41.8673 5.71855 37.7048 9.88096 37.7048 15.0157H38.3048ZM47.0022 23.7128C42.201 23.7075 38.3101 19.8166 38.3048 15.0154L37.7048 15.016C37.7104 20.1481 41.8695 24.3071 47.0016 24.3128L47.0022 23.7128ZM55.699 15.0157C55.699 19.8189 51.8052 23.7128 47.0019 23.7128V24.3128C52.1366 24.3128 56.299 20.1503 56.299 15.0157H55.699ZM47.0019 6.31855C51.8051 6.31855 55.699 10.2125 55.699 15.0157H56.299C56.299 9.88109 52.1365 5.71855 47.0019 5.71855V6.31855ZM39.7041 15.0157C39.7041 19.0461 42.9714 22.3135 47.0019 22.3135V21.7135C43.3028 21.7135 40.3041 18.7148 40.3041 15.0157H39.7041ZM47.0016 7.71792C42.9732 7.72248 39.7087 10.987 39.7041 15.0153L40.3041 15.016C40.3083 11.3186 43.3048 8.3221 47.0022 8.31792L47.0016 7.71792ZM54.2997 15.0157C54.2997 10.9852 51.0323 7.71792 47.0019 7.71792V8.31792C50.701 8.31792 53.6997 11.3166 53.6997 15.0157H54.2997ZM47.0019 22.3135C51.0323 22.3135 54.2997 19.0461 54.2997 15.0157H53.6997C53.6997 18.7148 50.701 21.7135 47.0019 21.7135V22.3135ZM27.0083 18.7134H26.0086V19.3134H27.0083V18.7134ZM30.3073 22.0124C30.3073 20.1905 28.8303 18.7134 27.0083 18.7134V19.3134C28.4989 19.3134 29.7073 20.5219 29.7073 22.0124H30.3073ZM30.3073 27.0108V22.0124H29.7073V27.0108H30.3073ZM27.0083 30.3099C28.8303 30.3099 30.3073 28.8329 30.3073 27.0108H29.7073C29.7073 28.5015 28.4989 29.7099 27.0083 29.7099V30.3099ZM18.0111 30.3099H27.0083V29.7099H18.0111V30.3099ZM17.0115 31.3096C17.7292 31.3096 18.3111 30.7276 18.3111 30.0099H17.7111C17.7111 30.3963 17.3979 30.7096 17.0115 30.7096V31.3096ZM13.0127 31.3096H17.0115V30.7096H13.0127V31.3096ZM11.7131 30.0099C11.7131 30.7276 12.295 31.3096 13.0127 31.3096V30.7096C12.6264 30.7096 12.3131 30.3963 12.3131 30.0099H11.7131ZM11.7131 19.0134V30.0099H12.3131V19.0134H11.7131ZM13.0127 17.7137C12.295 17.7137 11.7131 18.2956 11.7131 19.0134H12.3131C12.3131 18.627 12.6264 18.3137 13.0127 18.3137V17.7137ZM17.0115 17.7137H13.0127V18.3137H17.0115V17.7137ZM18.3111 19.0134C18.3111 18.2956 17.7292 17.7137 17.0115 17.7137V18.3137C17.3979 18.3137 17.7111 18.627 17.7111 19.0134H18.3111ZM18.7108 18.0137C18.7108 18.4001 18.3975 18.7134 18.0111 18.7134V19.3134C18.7289 19.3134 19.3108 18.7315 19.3108 18.0137H18.7108ZM18.7108 15.0147V18.0137H19.3108V15.0147H18.7108ZM22.0099 11.7156C20.1878 11.7156 18.7108 13.1926 18.7108 15.0147H19.3108C19.3108 13.524 20.5192 12.3156 22.0099 12.3156V11.7156ZM25.3089 15.0147C25.3089 13.1926 23.8319 11.7156 22.0099 11.7156V12.3156C23.5005 12.3156 24.7089 13.524 24.7089 15.0147H25.3089ZM25.3089 18.0137V15.0147H24.7089V18.0137H25.3089ZM26.0086 18.7134C25.6222 18.7134 25.3089 18.4001 25.3089 18.0137H24.7089C24.7089 18.7315 25.2908 19.3134 26.0086 19.3134V18.7134ZM16.0118 28.7102H14.0124V29.3102H16.0118V28.7102ZM15.7118 20.0131V29.0102H16.3118V20.0131H15.7118ZM14.0124 20.3131H16.0118V19.7131H14.0124V20.3131ZM14.3124 29.0102V20.0131H13.7124V29.0102H14.3124ZM27.708 27.0108C27.708 27.3972 27.3947 27.7105 27.0083 27.7105V28.3105C27.726 28.3105 28.308 27.7286 28.308 27.0108H27.708ZM27.708 22.0124V27.0108H28.308V22.0124H27.708ZM27.0083 21.3128C27.3947 21.3128 27.708 21.6261 27.708 22.0124H28.308C28.308 21.2947 27.726 20.7128 27.0083 20.7128V21.3128ZM26.0086 21.3128H27.0083V20.7128H26.0086V21.3128ZM22.7096 18.0137C22.7096 19.8357 24.1866 21.3128 26.0086 21.3128V20.7128C24.5179 20.7128 23.3096 19.5044 23.3096 18.0137H22.7096ZM22.7096 15.0147V18.0137H23.3096V15.0147H22.7096ZM22.0099 14.315C22.3963 14.315 22.7096 14.6283 22.7096 15.0147H23.3096C23.3096 14.2969 22.7276 13.715 22.0099 13.715V14.315ZM21.3102 15.0147C21.3102 14.6283 21.6235 14.315 22.0099 14.315V13.715C21.2921 13.715 20.7102 14.2969 20.7102 15.0147H21.3102ZM21.3102 18.0137V15.0147H20.7102V18.0137H21.3102ZM18.0111 21.3128C19.8332 21.3128 21.3102 19.8357 21.3102 18.0137H20.7102C20.7102 19.5044 19.5018 20.7128 18.0111 20.7128V21.3128ZM18.3111 28.0105V21.0128H17.7111V28.0105H18.3111ZM27.0083 27.7105H18.0111V28.3105H27.0083V27.7105ZM55.4805 37.0937L55.9064 37.5216L56.3316 37.0983L55.9058 36.6704L55.4805 37.0937ZM52.0751 36.7583C53.1467 36.0483 54.5697 36.1889 55.4817 37.0949L55.9046 36.6692C54.7907 35.5626 53.0525 35.3909 51.7437 36.2581L52.0751 36.7583ZM50.9952 37.4785L52.0758 36.7578L51.7429 36.2586L50.6622 36.9794L50.9952 37.4785ZM49.5816 36.7578L50.6622 37.4785L50.9952 36.9794L49.9145 36.2586L49.5816 36.7578ZM46.1758 37.0948C47.0874 36.1882 48.5108 36.0475 49.5822 36.7582L49.9139 36.2582C48.6051 35.3901 46.8662 35.5618 45.7527 36.6694L46.1758 37.0948ZM45.7485 37.5221L46.1764 37.0942L45.7521 36.6699L45.3243 37.0978L45.7485 37.5221ZM45.7486 41.3385C44.6949 40.2845 44.6949 38.576 45.7486 37.522L45.3242 37.0978C44.0364 38.3861 44.0364 40.4744 45.3242 41.7627L45.7486 41.3385ZM50.333 45.9219L45.7485 41.3384L45.3243 41.7627L49.9088 46.3463L50.333 45.9219ZM51.3224 45.9219C51.0492 46.1951 50.6063 46.1951 50.333 45.9219L49.9088 46.3463C50.4164 46.8536 51.239 46.8536 51.7466 46.3463L51.3224 45.9219ZM55.9069 41.3384L51.3224 45.9219L51.7466 46.3463L56.3311 41.7627L55.9069 41.3384ZM55.9068 37.522C56.9605 38.576 56.9605 40.2845 55.9068 41.3385L56.3312 41.7627C57.619 40.4744 57.619 38.3861 56.3312 37.0978L55.9068 37.522ZM54.9186 40.3492L54.9193 40.3484L54.4951 39.9241L54.4943 39.9249L54.9186 40.3492ZM51.0408 44.2259L54.9186 40.3492L54.4944 39.9249L50.6166 43.8016L51.0408 44.2259ZM46.7399 40.3533L50.6167 44.226L51.0407 43.8015L47.164 39.9288L46.7399 40.3533ZM46.7398 38.5154C46.2324 39.0229 46.2324 39.8456 46.7398 40.3531L47.1641 39.9289C46.891 39.6557 46.891 39.2128 47.1641 38.9396L46.7398 38.5154ZM47.1667 38.0885L46.7398 38.5153L47.1641 38.9396L47.5909 38.5127L47.1667 38.0885ZM48.8068 37.9261C48.2914 37.5823 47.6048 37.6502 47.1666 38.0885L47.591 38.5127C47.8268 38.2767 48.1964 38.2402 48.474 38.4252L48.8068 37.9261ZM50.4413 39.0157L48.8068 37.926L48.474 38.4253L50.1085 39.5149L50.4413 39.0157ZM51.218 39.0158C50.9829 39.1727 50.6765 39.1727 50.4414 39.0158L50.1083 39.5148C50.5451 39.8063 51.1143 39.8063 51.5511 39.5148L51.218 39.0158ZM52.8537 37.926L51.2182 39.0156L51.5509 39.515L53.1863 38.4253L52.8537 37.926ZM54.4925 38.0872C54.0543 37.65 53.3685 37.5826 52.8536 37.9261L53.1865 38.4252C53.4637 38.2403 53.8329 38.2767 54.0687 38.512L54.4925 38.0872ZM53.9806 38.2956V38.2996H54.5806V38.2956H53.9806ZM54.9188 38.5106L54.493 38.0837L54.0682 38.5075L54.4941 38.9344L54.9188 38.5106ZM54.9194 40.3483C55.4268 39.8404 55.4263 39.0176 54.9185 38.5102L54.4944 38.9347C54.7679 39.2079 54.7681 39.6509 54.495 39.9242L54.9194 40.3483ZM39.7455 27.6963L38.7447 31.6947L39.3268 31.8404L40.3275 27.842L39.7455 27.6963ZM42.048 27.9633L40.1093 27.4781L39.9637 28.0602L41.9023 28.5454L42.048 27.9633ZM41.2654 32.3256L42.2661 28.3272L41.6841 28.1815L40.6833 32.1799L41.2654 32.3256ZM38.9629 32.0586L40.9015 32.5438L41.0472 31.9618L39.1086 31.4766L38.9629 32.0586ZM41.6896 33.3826L45.6881 31.3833L45.4197 30.8467L41.4213 32.8459L41.6896 33.3826ZM42.7179 34.7683L41.8237 32.9801L41.2871 33.2484L42.1812 35.0367L42.7179 34.7683ZM46.3139 32.6349L42.3154 34.6342L42.5837 35.1708L46.5822 33.1716L46.3139 32.6349ZM45.2856 31.2492L46.1797 33.0374L46.7163 32.7691L45.8222 30.9809L45.2856 31.2492ZM40.8964 50.4704L38.9578 50.955L39.1033 51.5371L41.0419 51.0525L40.8964 50.4704ZM42.2597 54.6872L41.2602 50.6887L40.6781 50.8342L41.6776 54.8327L42.2597 54.6872ZM40.1028 55.5356L42.0414 55.051L41.8959 54.4689L39.9573 54.9535L40.1028 55.5356ZM38.7395 51.3188L39.739 55.3173L40.3211 55.1718L39.3216 51.1733L38.7395 51.3188ZM41.8234 50.0316L42.7175 48.2434L42.1808 47.9751L41.2867 49.7633L41.8234 50.0316ZM45.6877 51.6284L41.6892 49.6291L41.4209 50.1658L45.4194 52.165L45.6877 51.6284ZM46.1793 49.9743L45.2852 51.7625L45.8219 52.0309L46.716 50.2426L46.1793 49.9743ZM42.315 48.3776L46.3135 50.3768L46.5818 49.8401L42.5833 47.8409L42.315 48.3776ZM2.01624 28.3109H4.0156V27.7109H2.01624V28.3109ZM25.0089 3.71855C17.851 3.71855 12.0192 6.0411 7.97753 10.2589C3.93731 14.4753 1.71624 20.554 1.71624 28.0109H2.31624C2.31624 20.6725 4.50025 14.755 8.41075 10.6741C12.3198 6.59454 17.9843 4.31855 25.0089 4.31855V3.71855ZM25.3089 6.01792V4.01855H24.7089V6.01792H25.3089ZM4.3156 28.0109C4.3156 21.287 6.30838 15.8692 9.87343 12.1344C13.4369 8.40124 18.6014 6.31792 25.0089 6.31792V5.71792C18.4675 5.71792 13.1353 7.84825 9.43942 11.7201C5.74503 15.5904 3.7156 21.1692 3.7156 28.0109H4.3156Z" fill="url(#paint1_linear)" mask="url(#path-1-outside-1)"/>
<defs>
<linearGradient id="paint0_linear" x1="31.0105" y1="1.01074" x2="31.0105" y2="61.0005" gradientUnits="userSpaceOnUse">
<stop stop-color="#3831FB"/>
<stop offset="1" stop-color="#C546FB"/>
</linearGradient>
<linearGradient id="paint1_linear" x1="31.0105" y1="1.01074" x2="31.0105" y2="61.0005" gradientUnits="userSpaceOnUse">
<stop stop-color="#3831FB"/>
<stop offset="1" stop-color="#C546FB"/>
</linearGradient>
</defs>
</svg>
