<svg width="62" height="62" viewBox="0 0 62 62" fill="none" xmlns="http://www.w3.org/2000/svg">
<path fill-rule="evenodd" clip-rule="evenodd" d="M59.6567 24.0636C59.3793 23.7992 58.9809 23.6847 58.5967 23.7583L48.4961 25.6964C48.0727 25.7778 47.7304 26.0745 47.6054 26.4686C47.4805 26.8628 47.5931 27.2907 47.8985 27.582L49.2651 28.8848L43.9018 33.9982L39.75 30.0398C39.5301 29.8303 39.2321 29.7125 38.9213 29.7125C38.6105 29.7125 38.3124 29.8303 38.0926 30.0398L32.998 34.8971L34.909 28.3504C35.3736 26.7589 35.0388 25.0918 33.9907 23.7763C33.3487 22.9707 32.5012 22.3767 31.5429 22.0363L33.0706 17.8757C33.4922 17.911 33.9127 17.929 34.3284 17.929C37.7126 17.929 41.0122 16.7917 43.6195 14.7269L43.8988 14.5058C45.2734 13.4169 45.5083 11.5246 44.4338 10.1981C43.889 9.5253 43.1016 9.10338 42.2168 9.01019C41.3316 8.91689 40.4666 9.1645 39.7817 9.70698L39.4645 9.95828C38.997 10.3285 38.4858 10.6481 37.945 10.9082C36.1378 11.7773 33.8811 11.3902 32.3815 9.97527C34.5628 9.3311 36.1518 7.38977 36.1518 5.10116C36.1519 2.28839 33.7515 0 30.8012 0C27.8507 0 25.4505 2.28839 25.4505 5.10127C25.4505 6.22066 25.8315 7.25624 26.4751 8.0983C25.2578 8.34814 24.1624 8.9465 23.3242 9.79246C23.2753 9.83336 23.2284 9.87761 23.186 9.92744C21.1199 12.347 18.3655 14.0825 15.2208 14.9461C14.3693 15.1801 13.6954 15.7191 13.291 16.4025L10.8889 14.1124C9.83785 13.1104 8.12793 13.1105 7.07678 14.1124L3.93317 17.1096L0.789564 20.1067C0.280338 20.5921 0 21.2374 0 21.924C0 22.6106 0.280455 23.2558 0.789447 23.7413L9.45098 31.9993C9.9602 32.4847 10.637 32.752 11.3571 32.752C12.0773 32.752 12.7541 32.4846 13.2632 31.9993L16.5181 28.896L14.9748 32.7545C14.7441 33.3311 15.0474 33.9768 15.6522 34.1967C15.7896 34.2467 15.9307 34.2704 16.0696 34.2704C16.5417 34.2704 16.9867 33.9964 17.165 33.5509L21.0088 23.9414H28.3466H29.615C30.6088 23.9414 31.5233 24.374 32.1244 25.1283C32.7255 25.8827 32.9174 26.8387 32.6509 27.7513L29.9878 36.8742C29.8681 37.2847 29.4722 37.5714 29.0252 37.5714C28.6241 37.5714 28.3768 37.362 28.2651 37.2372C28.1535 37.1124 27.9753 36.8466 28.0383 36.4692L29.4553 27.9757C29.5092 27.6527 29.4119 27.3235 29.1893 27.0748C28.9666 26.8261 28.6408 26.6828 28.2978 26.6828H25.5193C25.0774 26.6828 24.6729 26.9198 24.4734 27.2958C24.405 27.4248 17.605 40.2434 15.3136 44.5748C15.0842 45.0086 14.5855 45.2561 14.0742 45.1894L14.0187 45.1822C13.6698 45.1373 13.3667 44.946 13.1868 44.6574C13.0069 44.3688 12.9758 44.0234 13.1013 43.7099L13.8235 41.9045C14.0542 41.3279 13.7509 40.6823 13.1461 40.4623C12.5415 40.2424 11.8642 40.5317 11.6334 41.1082L10.9113 42.9135C10.5293 43.8684 10.6242 44.92 11.1717 45.7987C11.7191 46.6773 12.6423 47.2599 13.7036 47.3969L13.7592 47.4039C13.9199 47.4248 14.08 47.4347 14.239 47.4347C15.5659 47.4347 16.8 46.7279 17.4065 45.5812C19.408 41.7978 24.8514 31.5352 26.24 28.9176H26.9248L25.7235 36.1181C25.5696 37.0407 25.8462 37.9775 26.4824 38.688C26.8917 39.1452 27.4217 39.476 28.0084 39.6545L14.9528 52.1017C14.7331 52.3113 14.6096 52.5955 14.6096 52.8918C14.6096 53.1881 14.7331 53.4724 14.9528 53.6819L18.3144 56.8867C18.5433 57.1049 18.8432 57.214 19.1431 57.214C19.4431 57.214 19.743 57.1049 19.9719 56.8867L26.4343 50.7254C26.8919 50.2891 26.8919 49.5816 26.4343 49.1451C25.9765 48.7089 25.2346 48.7089 24.7767 49.1451L19.1431 54.5163L17.4391 52.8917L38.9215 32.4099L43.0734 36.3684C43.2932 36.5779 43.5913 36.6956 43.9021 36.6956C44.2129 36.6956 44.5109 36.5779 44.7308 36.3684L51.7513 29.6748C52.209 29.2385 52.209 28.531 51.7513 28.0945L51.1023 27.4757L57.3312 26.2806L56.0777 32.2193L55.113 31.2996C54.6552 30.8634 53.9134 30.8634 53.4555 31.2996L43.902 40.408L39.7501 36.4496C39.2923 36.0134 38.5505 36.0134 38.0926 36.4496L31.4063 42.8243C30.9486 43.2607 30.9486 43.9682 31.4063 44.4046C31.8641 44.8409 32.6059 44.8409 33.0638 44.4046L38.9213 38.8201L43.0731 42.7785C43.5309 43.2148 44.2728 43.2148 44.7307 42.7785L54.2842 33.6701L55.9665 35.274C56.2719 35.5652 56.7209 35.6728 57.1341 35.5535C57.5476 35.4345 57.859 35.1081 57.9442 34.7043L59.977 25.0741C60.0543 24.7075 59.9341 24.3282 59.6567 24.0636ZM30.8012 2.23475C32.4591 2.23475 33.8078 3.52074 33.8078 5.10127C33.8078 6.68191 32.459 7.9679 30.8012 7.9679C29.1433 7.9679 27.7945 6.68191 27.7945 5.10127C27.7945 3.52074 29.1433 2.23475 30.8012 2.23475ZM19.2042 22.0402L17.7779 20.6804C18.4553 20.4697 19.1206 20.2286 19.772 19.959L19.2042 22.0402ZM15.2489 18.1643C15.1104 17.7059 15.3889 17.2257 15.8697 17.0936C17.7963 16.5644 19.5933 15.7474 21.2123 14.6804L20.5505 17.1063C19.2329 17.8004 17.8302 18.3555 16.3715 18.7561C16.3445 18.7634 16.3161 18.7699 16.2881 18.7751C16.0719 18.8143 15.8555 18.7733 15.6738 18.6745L15.3306 18.3472C15.2967 18.2901 15.2686 18.2293 15.2489 18.1643ZM8.73408 15.6925C8.80264 15.6272 8.89276 15.5946 8.98277 15.5946C9.07278 15.5946 9.1629 15.6272 9.23135 15.6925L13.5035 19.7656C13.7016 20.0236 13.9379 20.2485 14.2041 20.4336L17.893 23.9506C18.0301 24.0812 18.0301 24.294 17.893 24.4246L15.5781 26.6317L13.0036 24.1771L13.494 23.7096C13.9516 23.2733 13.9516 22.5658 13.494 22.1293L10.8558 19.6141C10.3981 19.1779 9.65619 19.1779 9.1983 19.6141L8.70794 20.0816L6.41918 17.8995L8.73408 15.6925ZM10.3383 23.5579C10.2261 23.6648 10.0952 23.6809 10.0271 23.6809C9.95915 23.6809 9.82824 23.6648 9.71608 23.558V23.5579L9.35757 23.2162C9.24553 23.1092 9.22865 22.9844 9.22865 22.9196C9.22865 22.8547 9.24553 22.7299 9.35769 22.623L10.0271 21.9847L11.0077 22.9196L10.3383 23.5579ZM11.6057 30.4191C11.5205 30.5002 11.4235 30.5172 11.3571 30.5172C11.2908 30.5172 11.1936 30.5002 11.1085 30.419L2.44698 22.161C2.36178 22.0798 2.34396 21.9873 2.34396 21.924C2.34396 21.8607 2.36178 21.7682 2.44698 21.687L4.76176 19.48L7.1601 21.7665C6.98021 22.1216 6.88469 22.5136 6.88469 22.9196C6.88469 23.6287 7.1744 24.2952 7.70015 24.7965L8.05855 25.1381V25.1382C8.5843 25.6394 9.2835 25.9156 10.0271 25.9156C10.453 25.9156 10.8642 25.8247 11.2366 25.6531L13.9207 28.2121L11.6057 30.4191ZM28.3465 21.7066H21.7173L24.1249 12.8823C24.5555 11.3046 26.0503 10.2028 27.7603 10.2028C28.8166 10.2028 29.7936 10.6088 30.5115 11.3462C32.7134 13.6082 36.2046 14.2486 39.0009 12.9036C39.6991 12.5678 40.3592 12.1554 40.9625 11.6774L41.2798 11.4261C41.471 11.2746 41.7123 11.205 41.9596 11.2316C42.2063 11.2576 42.4262 11.3756 42.5788 11.5641C42.8733 11.9275 42.7935 12.4762 42.4011 12.7869L42.122 13.008C39.9346 14.7404 37.1668 15.6944 34.3285 15.6944C33.7122 15.6944 33.0822 15.6474 32.456 15.5545C31.8971 15.471 31.3565 15.7807 31.1697 16.2894L29.1806 21.7066H28.3465ZM28.9422 45.6777C28.6341 45.6777 28.3317 45.7972 28.1138 46.0051C27.8958 46.2128 27.7704 46.5011 27.7704 46.7951C27.7704 47.0901 27.8957 47.3773 28.1138 47.585C28.3317 47.7939 28.6341 47.9125 28.9422 47.9125C29.2504 47.9125 29.5527 47.7939 29.7706 47.585C29.9885 47.3773 30.114 47.09 30.114 46.7951C30.114 46.5011 29.9886 46.2128 29.7706 46.0051C29.5527 45.7972 29.2504 45.6777 28.9422 45.6777ZM15.2252 38.126C15.0073 38.3339 14.7049 38.4535 14.3968 38.4535C14.0874 38.4535 13.7863 38.3338 13.5671 38.126C13.3493 37.9183 13.225 37.63 13.225 37.3361C13.225 37.0423 13.3493 36.754 13.5671 36.5461C13.7863 36.3382 14.0886 36.2188 14.3968 36.2188C14.7049 36.2188 15.0061 36.3383 15.2252 36.5461C15.4432 36.754 15.5685 37.0423 15.5685 37.3361C15.5685 37.63 15.443 37.9183 15.2252 38.126Z" fill="url(#paint0_linear)"/>
<path d="M3.14606 60L46.0396 60" stroke="#C146FC" stroke-width="2.6" stroke-linecap="round" stroke-linejoin="round"/>
<path d="M51.2748 60L60 60" stroke="#C146FC" stroke-width="2.6" stroke-linecap="round" stroke-linejoin="round"/>
<defs>
<linearGradient id="paint0_linear" x1="30" y1="0" x2="30" y2="57.214" gradientUnits="userSpaceOnUse">
<stop stop-color="#3831FB"/>
<stop offset="1" stop-color="#C546FB"/>
</linearGradient>
</defs>
</svg>
