<svg width="203" height="162" viewBox="0 0 203 162" fill="none" xmlns="http://www.w3.org/2000/svg">
<circle cx="3" cy="135" r="3" transform="rotate(-90 3 135)" fill="#531F8F"/>
<circle cx="3" cy="120" r="3" transform="rotate(-90 3 120)" fill="#531F8F"/>
<circle cx="3" cy="105" r="3" transform="rotate(-90 3 105)" fill="#531F8F"/>
<circle cx="3" cy="90" r="3" transform="rotate(-90 3 90)" fill="#531F8F"/>
<circle cx="3" cy="75" r="3" transform="rotate(-90 3 75)" fill="#531F8F"/>
<circle cx="3" cy="60" r="3" transform="rotate(-90 3 60)" fill="#531F8F"/>
<circle cx="3" cy="45" r="3" transform="rotate(-90 3 45)" fill="#531F8F"/>
<circle cx="3" cy="30" r="3" transform="rotate(-90 3 30)" fill="#531F8F"/>
<circle cx="17" cy="135" r="3" transform="rotate(-90 17 135)" fill="#531F8F"/>
<circle cx="17" cy="120" r="3" transform="rotate(-90 17 120)" fill="#531F8F"/>
<circle cx="17" cy="105" r="3" transform="rotate(-90 17 105)" fill="#531F8F"/>
<circle cx="17" cy="90" r="3" transform="rotate(-90 17 90)" fill="#531F8F"/>
<circle cx="17" cy="75" r="3" transform="rotate(-90 17 75)" fill="#531F8F"/>
<circle cx="17" cy="60" r="3" transform="rotate(-90 17 60)" fill="#531F8F"/>
<circle cx="17" cy="45" r="3" transform="rotate(-90 17 45)" fill="#531F8F"/>
<circle cx="17" cy="30" r="3" transform="rotate(-90 17 30)" fill="#531F8F"/>
<circle cx="31" cy="135" r="3" transform="rotate(-90 31 135)" fill="#531F8F"/>
<circle cx="31" cy="120" r="3" transform="rotate(-90 31 120)" fill="#531F8F"/>
<circle cx="31" cy="105" r="3" transform="rotate(-90 31 105)" fill="#531F8F"/>
<circle cx="31" cy="90" r="3" transform="rotate(-90 31 90)" fill="#531F8F"/>
<circle cx="31" cy="75" r="3" transform="rotate(-90 31 75)" fill="#531F8F"/>
<circle cx="31" cy="60" r="3" transform="rotate(-90 31 60)" fill="#531F8F"/>
<circle cx="31" cy="45" r="3" transform="rotate(-90 31 45)" fill="#531F8F"/>
<circle cx="31" cy="30" r="3" transform="rotate(-90 31 30)" fill="#531F8F"/>
<circle cx="45" cy="135" r="3" transform="rotate(-90 45 135)" fill="#531F8F"/>
<circle cx="45" cy="120" r="3" transform="rotate(-90 45 120)" fill="#531F8F"/>
<circle cx="45" cy="105" r="3" transform="rotate(-90 45 105)" fill="#531F8F"/>
<circle cx="45" cy="90" r="3" transform="rotate(-90 45 90)" fill="#531F8F"/>
<circle cx="45" cy="75" r="3" transform="rotate(-90 45 75)" fill="#531F8F"/>
<circle cx="45" cy="60" r="3" transform="rotate(-90 45 60)" fill="#531F8F"/>
<circle cx="45" cy="45" r="3" transform="rotate(-90 45 45)" fill="#531F8F"/>
<circle cx="45" cy="30" r="3" transform="rotate(-90 45 30)" fill="#531F8F"/>
<circle cx="59" cy="135" r="3" transform="rotate(-90 59 135)" fill="#531F8F"/>
<circle cx="59" cy="120" r="3" transform="rotate(-90 59 120)" fill="#531F8F"/>
<circle cx="59" cy="105" r="3" transform="rotate(-90 59 105)" fill="#531F8F"/>
<circle cx="59" cy="90" r="3" transform="rotate(-90 59 90)" fill="#531F8F"/>
<circle cx="59" cy="75" r="3" transform="rotate(-90 59 75)" fill="#531F8F"/>
<circle cx="59" cy="60" r="3" transform="rotate(-90 59 60)" fill="#531F8F"/>
<circle cx="59" cy="45" r="3" transform="rotate(-90 59 45)" fill="#531F8F"/>
<circle cx="59" cy="30" r="3" transform="rotate(-90 59 30)" fill="#531F8F"/>
<circle cx="73" cy="135" r="3" transform="rotate(-90 73 135)" fill="#531F8F"/>
<circle cx="73" cy="120" r="3" transform="rotate(-90 73 120)" fill="#531F8F"/>
<circle cx="73" cy="105" r="3" transform="rotate(-90 73 105)" fill="#531F8F"/>
<circle cx="73" cy="90" r="3" transform="rotate(-90 73 90)" fill="#531F8F"/>
<circle cx="73" cy="75" r="3" transform="rotate(-90 73 75)" fill="#531F8F"/>
<circle cx="73" cy="60" r="3" transform="rotate(-90 73 60)" fill="#531F8F"/>
<circle cx="73" cy="45" r="3" transform="rotate(-90 73 45)" fill="#531F8F"/>
<circle cx="73" cy="30" r="3" transform="rotate(-90 73 30)" fill="#531F8F"/>
<circle cx="87" cy="135" r="3" transform="rotate(-90 87 135)" fill="#531F8F"/>
<circle cx="87" cy="120" r="3" transform="rotate(-90 87 120)" fill="#531F8F"/>
<circle cx="87" cy="105" r="3" transform="rotate(-90 87 105)" fill="#531F8F"/>
<circle cx="87" cy="90" r="3" transform="rotate(-90 87 90)" fill="#531F8F"/>
<circle cx="87" cy="75" r="3" transform="rotate(-90 87 75)" fill="#531F8F"/>
<circle cx="87" cy="60" r="3" transform="rotate(-90 87 60)" fill="#531F8F"/>
<circle cx="87" cy="45" r="3" transform="rotate(-90 87 45)" fill="#531F8F"/>
<circle cx="87" cy="30" r="3" transform="rotate(-90 87 30)" fill="#531F8F"/>
<circle cx="101" cy="135" r="3" transform="rotate(-90 101 135)" fill="#531F8F"/>
<circle cx="101" cy="120" r="3" transform="rotate(-90 101 120)" fill="#531F8F"/>
<circle cx="101" cy="105" r="3" transform="rotate(-90 101 105)" fill="#531F8F"/>
<circle cx="101" cy="90" r="3" transform="rotate(-90 101 90)" fill="#531F8F"/>
<circle cx="101" cy="75" r="3" transform="rotate(-90 101 75)" fill="#531F8F"/>
<circle cx="101" cy="60" r="3" transform="rotate(-90 101 60)" fill="#531F8F"/>
<circle cx="101" cy="45" r="3" transform="rotate(-90 101 45)" fill="#531F8F"/>
<circle cx="101" cy="30" r="3" transform="rotate(-90 101 30)" fill="#531F8F"/>
<circle cx="115" cy="135" r="3" transform="rotate(-90 115 135)" fill="#531F8F"/>
<circle cx="115" cy="120" r="3" transform="rotate(-90 115 120)" fill="#531F8F"/>
<circle cx="115" cy="105" r="3" transform="rotate(-90 115 105)" fill="#531F8F"/>
<circle cx="115" cy="90" r="3" transform="rotate(-90 115 90)" fill="#531F8F"/>
<circle cx="115" cy="75" r="3" transform="rotate(-90 115 75)" fill="#531F8F"/>
<circle cx="115" cy="60" r="3" transform="rotate(-90 115 60)" fill="#531F8F"/>
<circle cx="115" cy="45" r="3" transform="rotate(-90 115 45)" fill="#531F8F"/>
<circle cx="115" cy="30" r="3" transform="rotate(-90 115 30)" fill="#531F8F"/>
<circle cx="129" cy="135" r="3" transform="rotate(-90 129 135)" fill="#531F8F"/>
<circle cx="129" cy="120" r="3" transform="rotate(-90 129 120)" fill="#531F8F"/>
<circle cx="129" cy="105" r="3" transform="rotate(-90 129 105)" fill="#531F8F"/>
<circle cx="129" cy="90" r="3" transform="rotate(-90 129 90)" fill="#531F8F"/>
<circle cx="129" cy="75" r="3" transform="rotate(-90 129 75)" fill="#531F8F"/>
<circle cx="129" cy="60" r="3" transform="rotate(-90 129 60)" fill="#531F8F"/>
<circle cx="129" cy="45" r="3" transform="rotate(-90 129 45)" fill="#531F8F"/>
<circle cx="129" cy="30" r="3" transform="rotate(-90 129 30)" fill="#531F8F"/>
<circle cx="143" cy="135" r="3" transform="rotate(-90 143 135)" fill="#531F8F"/>
<circle cx="143" cy="120" r="3" transform="rotate(-90 143 120)" fill="#531F8F"/>
<circle cx="143" cy="105" r="3" transform="rotate(-90 143 105)" fill="#531F8F"/>
<circle cx="143" cy="90" r="3" transform="rotate(-90 143 90)" fill="#531F8F"/>
<circle cx="143" cy="75" r="3" transform="rotate(-90 143 75)" fill="#531F8F"/>
<circle cx="143" cy="60" r="3" transform="rotate(-90 143 60)" fill="#531F8F"/>
<circle cx="143" cy="45" r="3" transform="rotate(-90 143 45)" fill="#531F8F"/>
<circle cx="143" cy="30" r="3" transform="rotate(-90 143 30)" fill="#531F8F"/>
<rect x="197.271" width="8" height="221" transform="rotate(45 197.271 0)" fill="#58E3AD"/>
</svg>
