<svg width="30" height="30" viewBox="0 0 30 30" fill="none" xmlns="http://www.w3.org/2000/svg">
<path fill-rule="evenodd" clip-rule="evenodd" d="M15 0C6.71573 0 0 6.71573 0 15C0 23.2843 6.71573 30 15 30C23.2843 30 30 23.2843 30 15C30 6.71573 23.2843 0 15 0ZM9 12H12V21H9V12ZM12 9.49948C11.9827 8.64831 11.4209 8 10.5087 8C9.5964 8 9 8.64831 9 9.49948C9 10.333 9.57877 11 10.474 11H10.4911C11.4209 11 12 10.333 12 9.49948ZM18.6057 12C20.5456 12 22 13.2571 22 15.958L21.9999 20.9998H19.0519V16.2954C19.0519 15.1137 18.6253 14.3074 17.5581 14.3074C16.7437 14.3074 16.2586 14.851 16.0455 15.376C15.9675 15.5641 15.9484 15.8263 15.9484 16.0891V21H13C13 21 13.0389 13.0318 13 12.2067H15.9484V13.4522C16.3397 12.8535 17.0405 12 18.6057 12Z" fill="white"/>
</svg>
