<?xml version="1.0" encoding="iso-8859-1"?>
<!-- Generator: Adobe Illustrator 19.0.0, SVG Export Plug-In . SVG Version: 6.00 Build 0)  -->
<svg version="1.1" id="Capa_1" xmlns="http://www.w3.org/2000/svg" xmlns:xlink="http://www.w3.org/1999/xlink" x="0px" y="0px"
	 viewBox="0 0 512 512" style="enable-background:new 0 0 512 512;" xml:space="preserve">
<g>
	<g>
		<path d="M255.999,426.861c-16.174,0-29.333,13.159-29.333,29.333s13.159,29.333,29.333,29.333s29.333-13.159,29.333-29.333
			S272.173,426.861,255.999,426.861z M255.999,465.527c-5.147,0-9.333-4.187-9.333-9.333s4.187-9.333,9.333-9.333
			c5.147,0,9.333,4.187,9.333,9.333S261.147,465.527,255.999,465.527z"/>
	</g>
</g>
<g>
	<g>
		<path d="M357.251,369.04c-0.13-0.63-0.32-1.261-0.57-1.87c-0.25-0.601-0.56-1.18-0.92-1.72c-0.37-0.551-0.79-1.061-1.25-1.521
			c-0.46-0.46-0.97-0.88-1.52-1.24c-0.54-0.359-1.12-0.67-1.721-0.92c-0.609-0.25-1.239-0.439-1.87-0.569
			c-1.29-0.261-2.619-0.261-3.909,0c-0.64,0.13-1.27,0.319-1.87,0.569c-0.61,0.25-1.19,0.561-1.73,0.92
			c-0.55,0.36-1.06,0.78-1.52,1.24c-0.46,0.46-0.88,0.97-1.24,1.521c-0.36,0.54-0.67,1.119-0.92,1.72
			c-0.25,0.609-0.44,1.24-0.57,1.87c-0.13,0.65-0.2,1.31-0.2,1.96c0,0.649,0.07,1.309,0.2,1.95c0.13,0.64,0.32,1.27,0.57,1.88
			c0.25,0.6,0.56,1.18,0.92,1.72c0.36,0.55,0.78,1.06,1.24,1.52c0.461,0.46,0.97,0.881,1.52,1.25c0.54,0.36,1.12,0.66,1.73,0.91
			c0.599,0.25,1.229,0.45,1.87,0.57c0.639,0.13,1.299,0.2,1.949,0.2c0.65,0,1.31-0.07,1.96-0.2c0.631-0.12,1.261-0.32,1.87-0.57
			c0.601-0.25,1.181-0.559,1.721-0.91c0.55-0.369,1.06-0.79,1.52-1.25c0.46-0.46,0.88-0.97,1.25-1.52c0.36-0.54,0.67-1.12,0.92-1.72
			c0.25-0.61,0.44-1.24,0.57-1.88s0.19-1.301,0.19-1.95C357.441,370.35,357.381,369.69,357.251,369.04z"/>
	</g>
</g>
<g>
	<g>
		<path d="M305.923,361H164.557c-5.522,0-10,4.478-10,10c0,5.522,4.478,10,10,10h141.366c5.522,0,10-4.478,10-10
			C315.923,365.478,311.446,361,305.923,361z"/>
	</g>
</g>
<g>
	<g>
		<path d="M275.999,33.687h-40c-5.523,0-10,4.478-10,10c0,5.522,4.477,10,10,10h40c5.522,0,10-4.478,10-10
			C285.999,38.165,281.522,33.687,275.999,33.687z"/>
	</g>
</g>
<g>
	<g>
		<path d="M379.9,0H132.098c-14.833,0-26.9,12.068-26.9,26.901V485.1c0,14.833,12.067,26.9,26.9,26.9h247.803
			c14.833,0,26.9-12.067,26.9-26.9V26.901C406.801,12.068,394.733,0,379.9,0z M125.197,26.901c0-3.806,3.096-6.901,6.9-6.901H379.9
			c3.805,0,6.9,3.096,6.9,6.901v40.472H125.197V26.901z M270.59,206.169c-2.472,0.971-4.455,2.884-5.515,5.318
			c-1.06,2.434-1.107,5.189-0.134,7.659l5.347,13.556l-14.289,10.105l-14.289-10.104l5.347-13.556
			c0.974-2.47,0.926-5.226-0.134-7.659c-1.059-2.435-3.043-4.348-5.514-5.318c-15.414-6.052-25.374-20.655-25.374-37.203v-6.807
			c0.002-0.124,0.003-0.249,0-0.372v-0.629h7.566c19.393,0,38.527-5.526,54.932-15.727l6.753,10.969
			c1.82,2.957,5.044,4.758,8.516,4.758h2.161v0.629c-0.003,0.124-0.003,0.248,0,0.372v6.807
			C295.963,185.515,286.004,200.118,270.59,206.169z M288.244,244.5c0.491-0.347,0.942-0.733,1.353-1.149h24.212
			c0.74,14.301,0.952,46.574,0.721,77.988H197.47c-0.231-31.413-0.02-63.688,0.721-77.988h24.211
			c0.411,0.417,0.862,0.802,1.353,1.149l26.472,18.719c1.73,1.224,3.752,1.835,5.773,1.835c2.022,0,4.044-0.611,5.773-1.835
			L288.244,244.5z M290.012,125.929c-1.493-2.426-3.95-4.1-6.754-4.602c-2.806-0.5-5.689,0.216-7.931,1.974
			c-14.691,11.515-33.062,17.856-51.727,17.856h-16.598v-16.159c0-14.9,12.123-27.022,27.023-27.022c1.28,0,2.548-0.246,3.735-0.724
			l18.135-7.303c3.828-1.541,7.763-2.382,11.656-2.576h3.521c11.982,0.597,23.122,7.288,28.944,18.461
			c3.163,6.072,4.977,11.979,4.977,16.202v19.121h-5.605L290.012,125.929z M125.197,87.373h80.654
			c-11.436,8.586-18.848,22.256-18.848,37.625v25.176c0,7.199,3.484,13.78,9.031,17.884v0.908c0,21.431,11.129,40.686,29.043,51.395
			l-1.179,2.99h-34.551c-3.569,0-6.869,1.903-8.656,4.993c-1.71,2.955-3.061,5.29-3.275,55.751
			c-0.102,23.698,0.14,47.115,0.143,47.349c0.057,5.481,4.517,9.896,9.999,9.896h136.883c5.482,0,9.942-4.414,9.999-9.896
			c0.003-0.233,0.244-23.65,0.143-47.349c-0.215-50.461-1.565-52.796-3.275-55.751c-1.787-3.09-5.087-4.993-8.656-4.993H288.1
			l-1.179-2.99c17.914-10.708,29.043-29.963,29.043-51.395v-0.908c5.547-4.105,9.031-10.686,9.031-17.884v-28.138
			c0-9.541-3.938-19.103-7.241-25.443c-1.735-3.33-3.767-6.409-6.049-9.22h75.097v313.251H125.197V87.373z M386.803,485.1h-0.001
			c0,3.805-3.096,6.9-6.9,6.9H132.098c-3.805,0-6.9-3.096-6.9-6.9v-64.476h261.604V485.1z"/>
	</g>
</g>
<g>
	<g>
		<path d="M296.699,277.6h-18.457c-5.522,0-10,4.477-10,10c0,5.522,4.478,10,10,10h18.457c5.523,0,10-4.478,10-10
			C306.699,282.077,302.222,277.6,296.699,277.6z"/>
	</g>
</g>
<g>
</g>
<g>
</g>
<g>
</g>
<g>
</g>
<g>
</g>
<g>
</g>
<g>
</g>
<g>
</g>
<g>
</g>
<g>
</g>
<g>
</g>
<g>
</g>
<g>
</g>
<g>
</g>
<g>
</g>
</svg>
