<svg height="512pt" viewBox="-31 0 511 512" width="512pt" xmlns="http://www.w3.org/2000/svg"><path d="m341.058594 189.472656-53.621094-82.601562c-1.847656-2.839844-5.003906-4.554688-8.390625-4.554688s-6.542969 1.714844-8.386719 4.554688l-45.234375 69.679687-45.234375-69.679687c-1.84375-2.839844-5-4.554688-8.386718-4.554688-3.386719 0-6.542969 1.714844-8.390626 4.554688l-53.621093 82.601562c-1.996094 3.074219-2.148438 6.996094-.398438 10.214844 1.75 3.222656 5.121094 5.226562 8.789063 5.226562h16.351562v104.132813c0 5.523437 4.480469 10 10 10h54.535156c5.523438 0 10-4.476563 10-10v-104.132813h32.710938v104.132813c0 5.523437 4.476562 10 10 10h54.53125c5.523438 0 10-4.476563 10-10v-104.132813h16.355469c3.667969 0 7.039062-2.003906 8.789062-5.226562 1.75-3.21875 1.597657-7.140625-.398437-10.214844zm-141.988282-4.558594c-5.519531 0-10 4.480469-10 10v104.132813h-34.53125v-104.132813c0-5.519531-4.476562-10-10-10h-7.941406l35.207032-54.230468 35.207031 54.230468zm107.246094 0c-5.523437 0-10 4.480469-10 10v104.132813h-34.535156v-104.132813c0-5.519531-4.476562-10-10-10h-7.941406l35.210937-54.230468 35.207031 54.230468zm0 0"/><path d="m332.671875 409.683594h-214.488281c-5.523438 0-10-4.476563-10-10v-45c0-5.523438 4.476562-10 10-10h214.488281c5.519531 0 10 4.476562 10 10v45c0 5.519531-4.480469 10-10 10zm-204.488281-20h194.488281v-25h-194.488281zm0 0"/><path d="m440.355469 277.011719c-4.175781 0-8.015625-2.695313-9.414063-6.632813-1.394531-3.921875-.175781-8.457031 3.066406-11.097656 3.292969-2.679688 8.007813-2.980469 11.621094-.757812 3.597656 2.21875 5.429688 6.648437 4.457032 10.761718-1.054688 4.460938-5.132813 7.726563-9.730469 7.726563zm0 0"/><path d="m395.351562 467h-339.851562c-5.523438 0-10-4.476562-10-10v-402c0-5.523438 4.476562-10 10-10h339.851562c5.523438 0 10 4.476562 10 10v402c0 5.523438-4.476562 10-10 10zm-329.851562-20h319.851562v-382h-319.851562zm0 0"/><path d="m412.390625 512h-373.925781c-20.933594 0-37.964844-17.03125-37.964844-37.964844v-436.070312c0-20.933594 17.03125-37.964844 37.964844-37.964844h373.925781c20.929687 0 37.960937 17.03125 37.960937 37.964844v184.105468c0 5.519532-4.476562 10-10 10-5.523437 0-10-4.480468-10-10v-184.105468c0-9.90625-8.058593-17.964844-17.960937-17.964844h-373.925781c-9.90625 0-17.964844 8.058594-17.964844 17.964844v436.070312c0 9.90625 8.058594 17.964844 17.964844 17.964844h373.925781c9.902344 0 17.960937-8.058594 17.960937-17.964844v-161.714844c0-5.519531 4.476563-10 10-10 5.523438 0 10 4.480469 10 10v161.714844c0 20.933594-17.03125 37.964844-37.960937 37.964844zm0 0"/></svg>